<svg width="252" height="79" viewBox="0 0 252 79" fill="none" xmlns="http://www.w3.org/2000/svg">
<rect width="252" height="79" rx="15" fill="#323232"/>
<g clip-path="url(#clip0_85_1765)">
<path d="M64.9121 57.0326C62.6003 59.2736 60.0762 58.9198 57.6465 57.8582C55.0752 56.7731 52.7162 56.7259 50.0034 57.8582C46.6065 59.3208 44.8136 58.8962 42.7849 57.0326C31.2731 45.167 32.9716 27.0972 46.0403 26.4367C49.2249 26.6018 51.4424 28.1824 53.306 28.3239C56.0895 27.7577 58.7552 26.13 61.7275 26.3424C65.2895 26.6254 67.9788 28.0408 69.748 30.5885C62.388 34.9998 64.1336 44.6952 70.8803 47.408C69.5357 50.9465 67.7901 54.4613 64.8885 57.0562L64.9121 57.0326ZM53.0701 26.2952C52.7162 21.0347 56.986 16.6941 61.8926 16.2695C62.5767 22.3557 56.3726 26.8849 53.0701 26.2952Z" fill="white"/>
</g>
<path d="M88.6847 31.1811C87.9361 31.1811 87.268 30.9899 86.6804 30.6076C86.0968 30.2212 85.638 29.6719 85.304 28.9595C84.974 28.2431 84.8089 27.3839 84.8089 26.3817C84.8089 25.3796 84.976 24.5224 85.31 23.81C85.6481 23.0977 86.1109 22.5523 86.6985 22.174C87.2861 21.7957 87.9522 21.6065 88.6967 21.6065C89.2723 21.6065 89.7351 21.7031 90.0852 21.8963C90.4394 22.0855 90.7131 22.3068 90.9062 22.5604C91.1035 22.8139 91.2564 23.0373 91.3651 23.2305H91.4737V18.6364H93.2788V31H91.516V29.5572H91.3651C91.2564 29.7544 91.0994 29.9798 90.8942 30.2333C90.6929 30.4869 90.4152 30.7082 90.0611 30.8974C89.7069 31.0865 89.2481 31.1811 88.6847 31.1811ZM89.0831 29.6417C89.6023 29.6417 90.041 29.5049 90.3991 29.2312C90.7614 28.9535 91.035 28.5691 91.2202 28.0781C91.4093 27.5871 91.5039 27.0156 91.5039 26.3636C91.5039 25.7197 91.4113 25.1562 91.2262 24.6733C91.0411 24.1903 90.7694 23.814 90.4112 23.5444C90.053 23.2747 89.6103 23.1399 89.0831 23.1399C88.5398 23.1399 88.087 23.2808 87.7248 23.5625C87.3626 23.8442 87.0889 24.2286 86.9038 24.7156C86.7227 25.2025 86.6321 25.7519 86.6321 26.3636C86.6321 26.9834 86.7247 27.5408 86.9098 28.0359C87.0949 28.5309 87.3686 28.9233 87.7308 29.2131C88.0971 29.4988 88.5478 29.6417 89.0831 29.6417ZM99.7609 31.1871C98.8916 31.1871 98.133 30.9879 97.485 30.5895C96.837 30.1911 96.334 29.6336 95.9758 28.9173C95.6176 28.2009 95.4385 27.3638 95.4385 26.4059C95.4385 25.444 95.6176 24.6029 95.9758 23.8825C96.334 23.162 96.837 22.6026 97.485 22.2042C98.133 21.8058 98.8916 21.6065 99.7609 21.6065C100.63 21.6065 101.389 21.8058 102.037 22.2042C102.685 22.6026 103.188 23.162 103.546 23.8825C103.904 24.6029 104.083 25.444 104.083 26.4059C104.083 27.3638 103.904 28.2009 103.546 28.9173C103.188 29.6336 102.685 30.1911 102.037 30.5895C101.389 30.9879 100.63 31.1871 99.7609 31.1871ZM99.767 29.6719C100.33 29.6719 100.797 29.523 101.168 29.2251C101.538 28.9273 101.811 28.5309 101.989 28.0359C102.17 27.5408 102.26 26.9955 102.26 26.3999C102.26 25.8082 102.17 25.2649 101.989 24.7699C101.811 24.2708 101.538 23.8704 101.168 23.5685C100.797 23.2667 100.33 23.1158 99.767 23.1158C99.1995 23.1158 98.7286 23.2667 98.3543 23.5685C97.984 23.8704 97.7084 24.2708 97.5273 24.7699C97.3502 25.2649 97.2616 25.8082 97.2616 26.3999C97.2616 26.9955 97.3502 27.5408 97.5273 28.0359C97.7084 28.5309 97.984 28.9273 98.3543 29.2251C98.7286 29.523 99.1995 29.6719 99.767 29.6719ZM107.826 31L105.098 21.7273H106.963L108.78 28.5369H108.871L110.694 21.7273H112.559L114.37 28.5067H114.461L116.266 21.7273H118.131L115.409 31H113.567L111.684 24.305H111.545L109.661 31H107.826ZM121.649 25.4943V31H119.844V21.7273H121.577V23.2365H121.692C121.905 22.7455 122.239 22.3511 122.694 22.0533C123.153 21.7554 123.73 21.6065 124.426 21.6065C125.058 21.6065 125.612 21.7393 126.086 22.005C126.561 22.2666 126.93 22.657 127.191 23.1761C127.453 23.6953 127.584 24.3372 127.584 25.1019V31H125.779V25.3192C125.779 24.6471 125.604 24.1219 125.253 23.7436C124.903 23.3613 124.422 23.1701 123.811 23.1701C123.392 23.1701 123.02 23.2607 122.694 23.4418C122.372 23.6229 122.116 23.8885 121.927 24.2386C121.742 24.5848 121.649 25.0033 121.649 25.4943ZM131.809 18.6364V31H130.004V18.6364H131.809ZM138.144 31.1871C137.274 31.1871 136.516 30.9879 135.868 30.5895C135.22 30.1911 134.717 29.6336 134.359 28.9173C134 28.2009 133.821 27.3638 133.821 26.4059C133.821 25.444 134 24.6029 134.359 23.8825C134.717 23.162 135.22 22.6026 135.868 22.2042C136.516 21.8058 137.274 21.6065 138.144 21.6065C139.013 21.6065 139.772 21.8058 140.42 22.2042C141.068 22.6026 141.571 23.162 141.929 23.8825C142.287 24.6029 142.466 25.444 142.466 26.4059C142.466 27.3638 142.287 28.2009 141.929 28.9173C141.571 29.6336 141.068 30.1911 140.42 30.5895C139.772 30.9879 139.013 31.1871 138.144 31.1871ZM138.15 29.6719C138.713 29.6719 139.18 29.523 139.55 29.2251C139.921 28.9273 140.194 28.5309 140.371 28.0359C140.552 27.5408 140.643 26.9955 140.643 26.3999C140.643 25.8082 140.552 25.2649 140.371 24.7699C140.194 24.2708 139.921 23.8704 139.55 23.5685C139.18 23.2667 138.713 23.1158 138.15 23.1158C137.582 23.1158 137.111 23.2667 136.737 23.5685C136.367 23.8704 136.091 24.2708 135.91 24.7699C135.733 25.2649 135.644 25.8082 135.644 26.3999C135.644 26.9955 135.733 27.5408 135.91 28.0359C136.091 28.5309 136.367 28.9273 136.737 29.2251C137.111 29.523 137.582 29.6719 138.15 29.6719ZM147.18 31.2053C146.592 31.2053 146.061 31.0966 145.586 30.8793C145.111 30.6579 144.735 30.3379 144.457 29.9194C144.183 29.5008 144.046 28.9877 144.046 28.38C144.046 27.8568 144.147 27.4261 144.348 27.0881C144.549 26.75 144.821 26.4824 145.163 26.2852C145.505 26.0879 145.888 25.939 146.31 25.8384C146.733 25.7378 147.163 25.6613 147.602 25.609C148.157 25.5446 148.608 25.4923 148.954 25.4521C149.3 25.4078 149.552 25.3374 149.709 25.2408C149.866 25.1442 149.944 24.9872 149.944 24.7699V24.7276C149.944 24.2004 149.796 23.7919 149.498 23.5021C149.204 23.2124 148.765 23.0675 148.182 23.0675C147.574 23.0675 147.095 23.2023 146.745 23.4719C146.399 23.7376 146.159 24.0334 146.026 24.3594L144.33 23.973C144.531 23.4096 144.825 22.9548 145.211 22.6087C145.602 22.2585 146.051 22.005 146.558 21.848C147.065 21.687 147.598 21.6065 148.157 21.6065C148.528 21.6065 148.92 21.6508 149.335 21.7393C149.753 21.8239 150.144 21.9808 150.506 22.2102C150.872 22.4396 151.172 22.7676 151.405 23.1942C151.639 23.6168 151.756 24.1662 151.756 24.8423V31H149.993V29.7322H149.92C149.804 29.9657 149.628 30.1951 149.395 30.4205C149.162 30.6458 148.862 30.833 148.496 30.9819C148.129 31.1308 147.691 31.2053 147.18 31.2053ZM147.572 29.7564C148.071 29.7564 148.498 29.6578 148.852 29.4606C149.21 29.2634 149.482 29.0058 149.667 28.6879C149.856 28.3659 149.95 28.0218 149.95 27.6555V26.4602C149.886 26.5246 149.761 26.585 149.576 26.6413C149.395 26.6937 149.188 26.7399 148.954 26.7802C148.721 26.8164 148.494 26.8506 148.272 26.8828C148.051 26.911 147.866 26.9351 147.717 26.9553C147.367 26.9995 147.047 27.074 146.757 27.1786C146.471 27.2833 146.242 27.4342 146.069 27.6314C145.9 27.8246 145.815 28.0821 145.815 28.4041C145.815 28.8509 145.98 29.1889 146.31 29.4183C146.64 29.6437 147.061 29.7564 147.572 29.7564ZM157.631 31.1811C156.882 31.1811 156.214 30.9899 155.627 30.6076C155.043 30.2212 154.584 29.6719 154.25 28.9595C153.92 28.2431 153.755 27.3839 153.755 26.3817C153.755 25.3796 153.922 24.5224 154.256 23.81C154.594 23.0977 155.057 22.5523 155.645 22.174C156.232 21.7957 156.898 21.6065 157.643 21.6065C158.219 21.6065 158.681 21.7031 159.032 21.8963C159.386 22.0855 159.659 22.3068 159.853 22.5604C160.05 22.8139 160.203 23.0373 160.311 23.2305H160.42V18.6364H162.225V31H160.462V29.5572H160.311C160.203 29.7544 160.046 29.9798 159.84 30.2333C159.639 30.4869 159.362 30.7082 159.007 30.8974C158.653 31.0865 158.194 31.1811 157.631 31.1811ZM158.029 29.6417C158.549 29.6417 158.987 29.5049 159.345 29.2312C159.708 28.9535 159.981 28.5691 160.166 28.0781C160.356 27.5871 160.45 27.0156 160.45 26.3636C160.45 25.7197 160.358 25.1562 160.172 24.6733C159.987 24.1903 159.716 23.814 159.358 23.5444C158.999 23.2747 158.557 23.1399 158.029 23.1399C157.486 23.1399 157.033 23.2808 156.671 23.5625C156.309 23.8442 156.035 24.2286 155.85 24.7156C155.669 25.2025 155.578 25.7519 155.578 26.3636C155.578 26.9834 155.671 27.5408 155.856 28.0359C156.041 28.5309 156.315 28.9233 156.677 29.2131C157.043 29.4988 157.494 29.6417 158.029 29.6417ZM173.206 31.1871C172.337 31.1871 171.578 30.9879 170.93 30.5895C170.282 30.1911 169.779 29.6336 169.421 28.9173C169.063 28.2009 168.884 27.3638 168.884 26.4059C168.884 25.444 169.063 24.6029 169.421 23.8825C169.779 23.162 170.282 22.6026 170.93 22.2042C171.578 21.8058 172.337 21.6065 173.206 21.6065C174.076 21.6065 174.834 21.8058 175.482 22.2042C176.13 22.6026 176.633 23.162 176.991 23.8825C177.35 24.6029 177.529 25.444 177.529 26.4059C177.529 27.3638 177.35 28.2009 176.991 28.9173C176.633 29.6336 176.13 30.1911 175.482 30.5895C174.834 30.9879 174.076 31.1871 173.206 31.1871ZM173.212 29.6719C173.776 29.6719 174.243 29.523 174.613 29.2251C174.983 28.9273 175.257 28.5309 175.434 28.0359C175.615 27.5408 175.706 26.9955 175.706 26.3999C175.706 25.8082 175.615 25.2649 175.434 24.7699C175.257 24.2708 174.983 23.8704 174.613 23.5685C174.243 23.2667 173.776 23.1158 173.212 23.1158C172.645 23.1158 172.174 23.2667 171.8 23.5685C171.429 23.8704 171.154 24.2708 170.973 24.7699C170.795 25.2649 170.707 25.8082 170.707 26.3999C170.707 26.9955 170.795 27.5408 170.973 28.0359C171.154 28.5309 171.429 28.9273 171.8 29.2251C172.174 29.523 172.645 29.6719 173.212 29.6719ZM181.349 25.4943V31H179.544V21.7273H181.276V23.2365H181.391C181.604 22.7455 181.938 22.3511 182.393 22.0533C182.852 21.7554 183.429 21.6065 184.126 21.6065C184.757 21.6065 185.311 21.7393 185.786 22.005C186.261 22.2666 186.629 22.657 186.89 23.1761C187.152 23.6953 187.283 24.3372 187.283 25.1019V31H185.478V25.3192C185.478 24.6471 185.303 24.1219 184.953 23.7436C184.602 23.3613 184.122 23.1701 183.51 23.1701C183.091 23.1701 182.719 23.2607 182.393 23.4418C182.071 23.6229 181.815 23.8885 181.626 24.2386C181.441 24.5848 181.349 25.0033 181.349 25.4943ZM198.531 21.7273V23.1761H193.466V21.7273H198.531ZM194.824 19.5057H196.63V28.2773C196.63 28.6275 196.682 28.8911 196.786 29.0682C196.891 29.2412 197.026 29.36 197.191 29.4244C197.36 29.4847 197.543 29.5149 197.74 29.5149C197.885 29.5149 198.012 29.5049 198.121 29.4847C198.229 29.4646 198.314 29.4485 198.374 29.4364L198.7 30.9276C198.596 30.9678 198.447 31.008 198.253 31.0483C198.06 31.0926 197.819 31.1167 197.529 31.1207C197.054 31.1288 196.611 31.0443 196.201 30.8672C195.79 30.6901 195.458 30.4164 195.205 30.0462C194.951 29.6759 194.824 29.2111 194.824 28.6516V19.5057ZM202.532 25.4943V31H200.727V18.6364H202.508V23.2365H202.623C202.84 22.7375 203.172 22.341 203.619 22.0472C204.066 21.7534 204.649 21.6065 205.369 21.6065C206.005 21.6065 206.561 21.7373 207.036 21.9989C207.515 22.2605 207.885 22.6509 208.146 23.1701C208.412 23.6853 208.545 24.3292 208.545 25.1019V31H206.74V25.3192C206.74 24.6391 206.565 24.1119 206.215 23.7376C205.865 23.3593 205.378 23.1701 204.754 23.1701C204.327 23.1701 203.945 23.2607 203.607 23.4418C203.273 23.6229 203.009 23.8885 202.816 24.2386C202.627 24.5848 202.532 25.0033 202.532 25.4943ZM214.95 31.1871C214.037 31.1871 213.25 30.992 212.59 30.6016C211.934 30.2071 211.427 29.6538 211.068 28.9414C210.714 28.225 210.537 27.3859 210.537 26.424C210.537 25.4742 210.714 24.6371 211.068 23.9126C211.427 23.1882 211.926 22.6228 212.566 22.2163C213.209 21.8098 213.962 21.6065 214.823 21.6065C215.347 21.6065 215.854 21.6931 216.345 21.8661C216.836 22.0392 217.276 22.3108 217.667 22.6811C218.057 23.0514 218.365 23.5323 218.59 24.1239C218.816 24.7115 218.928 25.4259 218.928 26.267V26.907H211.557V25.5547H217.16C217.16 25.0798 217.063 24.6592 216.87 24.293C216.677 23.9227 216.405 23.6309 216.055 23.4176C215.709 23.2043 215.302 23.0977 214.835 23.0977C214.328 23.0977 213.886 23.2224 213.507 23.4719C213.133 23.7174 212.843 24.0394 212.638 24.4379C212.437 24.8323 212.336 25.2609 212.336 25.7237V26.7802C212.336 27.4 212.445 27.9272 212.662 28.3619C212.883 28.7965 213.191 29.1286 213.586 29.358C213.98 29.5833 214.441 29.696 214.968 29.696C215.31 29.696 215.622 29.6477 215.904 29.5511C216.186 29.4505 216.429 29.3016 216.634 29.1044C216.84 28.9072 216.997 28.6637 217.105 28.3739L218.814 28.6818C218.677 29.1849 218.431 29.6256 218.077 30.0039C217.727 30.3782 217.286 30.67 216.755 30.8793C216.228 31.0845 215.626 31.1871 214.95 31.1871Z" fill="white"/>
<path d="M87.9631 58H84.5881L90.733 40.5455H94.6364L100.79 58H97.4148L92.7528 44.125H92.6165L87.9631 58ZM88.0739 51.1562H97.2784V53.696H88.0739V51.1562ZM102.952 62.9091V44.9091H105.987V47.0739H106.165C106.325 46.7557 106.549 46.4176 106.839 46.0597C107.129 45.696 107.521 45.3864 108.015 45.1307C108.509 44.8693 109.14 44.7386 109.907 44.7386C110.918 44.7386 111.83 44.9972 112.643 45.5142C113.461 46.0256 114.109 46.7841 114.586 47.7898C115.069 48.7898 115.31 50.017 115.31 51.4716C115.31 52.9091 115.075 54.1307 114.603 55.1364C114.131 56.142 113.489 56.9091 112.677 57.4375C111.864 57.9659 110.944 58.2301 109.915 58.2301C109.165 58.2301 108.543 58.1051 108.049 57.8551C107.555 57.6051 107.157 57.304 106.856 56.9517C106.56 56.5937 106.33 56.2557 106.165 55.9375H106.038V62.9091H102.952ZM105.978 51.4545C105.978 52.3011 106.097 53.0426 106.336 53.679C106.58 54.3153 106.93 54.8125 107.384 55.1705C107.844 55.5227 108.401 55.6989 109.055 55.6989C109.737 55.6989 110.308 55.517 110.768 55.1534C111.228 54.7841 111.575 54.2812 111.808 53.6449C112.046 53.0028 112.165 52.2727 112.165 51.4545C112.165 50.642 112.049 49.9205 111.816 49.2898C111.583 48.6591 111.237 48.1648 110.776 47.8068C110.316 47.4489 109.742 47.2699 109.055 47.2699C108.396 47.2699 107.836 47.4432 107.376 47.7898C106.915 48.1364 106.566 48.6222 106.327 49.2472C106.094 49.8722 105.978 50.608 105.978 51.4545ZM117.952 62.9091V44.9091H120.987V47.0739H121.165C121.325 46.7557 121.549 46.4176 121.839 46.0597C122.129 45.696 122.521 45.3864 123.015 45.1307C123.509 44.8693 124.14 44.7386 124.907 44.7386C125.918 44.7386 126.83 44.9972 127.643 45.5142C128.461 46.0256 129.109 46.7841 129.586 47.7898C130.069 48.7898 130.31 50.017 130.31 51.4716C130.31 52.9091 130.075 54.1307 129.603 55.1364C129.131 56.142 128.489 56.9091 127.677 57.4375C126.864 57.9659 125.944 58.2301 124.915 58.2301C124.165 58.2301 123.543 58.1051 123.049 57.8551C122.555 57.6051 122.157 57.304 121.856 56.9517C121.56 56.5937 121.33 56.2557 121.165 55.9375H121.038V62.9091H117.952ZM120.978 51.4545C120.978 52.3011 121.097 53.0426 121.336 53.679C121.58 54.3153 121.93 54.8125 122.384 55.1705C122.844 55.5227 123.401 55.6989 124.055 55.6989C124.737 55.6989 125.308 55.517 125.768 55.1534C126.228 54.7841 126.575 54.2812 126.808 53.6449C127.046 53.0028 127.165 52.2727 127.165 51.4545C127.165 50.642 127.049 49.9205 126.816 49.2898C126.583 48.6591 126.237 48.1648 125.776 47.8068C125.316 47.4489 124.742 47.2699 124.055 47.2699C123.396 47.2699 122.836 47.4432 122.376 47.7898C121.915 48.1364 121.566 48.6222 121.327 49.2472C121.094 49.8722 120.978 50.608 120.978 51.4545ZM148.528 45.3438C148.448 44.5994 148.113 44.0199 147.522 43.6051C146.937 43.1903 146.175 42.983 145.238 42.983C144.579 42.983 144.013 43.0824 143.542 43.2812C143.07 43.4801 142.71 43.75 142.46 44.0909C142.21 44.4318 142.082 44.821 142.076 45.2585C142.076 45.6222 142.158 45.9375 142.323 46.2045C142.494 46.4716 142.724 46.6989 143.013 46.8864C143.303 47.0682 143.624 47.2216 143.977 47.3466C144.329 47.4716 144.684 47.5767 145.042 47.6619L146.678 48.071C147.337 48.2244 147.971 48.4318 148.579 48.6932C149.192 48.9545 149.741 49.2841 150.224 49.6818C150.712 50.0795 151.099 50.5597 151.383 51.1222C151.667 51.6847 151.809 52.3437 151.809 53.0994C151.809 54.1222 151.548 55.0227 151.025 55.8011C150.502 56.5739 149.746 57.179 148.758 57.6165C147.775 58.0483 146.585 58.2642 145.187 58.2642C143.829 58.2642 142.65 58.054 141.65 57.6335C140.656 57.2131 139.877 56.5994 139.315 55.7926C138.758 54.9858 138.457 54.0028 138.411 52.8438H141.522C141.567 53.4517 141.755 53.9574 142.085 54.3608C142.414 54.7642 142.843 55.0653 143.371 55.2642C143.906 55.4631 144.502 55.5625 145.161 55.5625C145.849 55.5625 146.451 55.4602 146.968 55.2557C147.491 55.0455 147.9 54.7557 148.195 54.3864C148.491 54.0114 148.641 53.5739 148.647 53.0739C148.641 52.6193 148.508 52.2443 148.246 51.9489C147.985 51.6477 147.619 51.3977 147.147 51.1989C146.681 50.9943 146.136 50.8125 145.511 50.6534L143.525 50.142C142.087 49.7727 140.951 49.2131 140.116 48.4631C139.286 47.7074 138.871 46.7045 138.871 45.4545C138.871 44.4261 139.15 43.5256 139.707 42.7528C140.269 41.9801 141.033 41.3807 141.999 40.9545C142.965 40.5227 144.059 40.3068 145.281 40.3068C146.519 40.3068 147.604 40.5227 148.536 40.9545C149.474 41.3807 150.21 41.9744 150.744 42.7358C151.278 43.4915 151.553 44.3608 151.57 45.3438H148.528ZM161.028 44.9091V47.2955H153.503V44.9091H161.028ZM155.361 41.7727H158.446V54.0625C158.446 54.4773 158.509 54.7955 158.634 55.017C158.764 55.233 158.935 55.3807 159.145 55.4602C159.355 55.5398 159.588 55.5795 159.844 55.5795C160.037 55.5795 160.213 55.5653 160.372 55.5369C160.537 55.5085 160.662 55.483 160.747 55.4602L161.267 57.8722C161.102 57.929 160.866 57.9915 160.56 58.0597C160.259 58.1278 159.889 58.1676 159.452 58.179C158.679 58.2017 157.983 58.0852 157.364 57.8295C156.744 57.5682 156.253 57.1648 155.889 56.6193C155.531 56.0739 155.355 55.392 155.361 54.5739V41.7727ZM169.178 58.2557C167.9 58.2557 166.792 57.9744 165.854 57.4119C164.917 56.8494 164.19 56.0625 163.673 55.0511C163.161 54.0398 162.906 52.858 162.906 51.5057C162.906 50.1534 163.161 48.9687 163.673 47.9517C164.19 46.9347 164.917 46.1449 165.854 45.5824C166.792 45.0199 167.9 44.7386 169.178 44.7386C170.457 44.7386 171.565 45.0199 172.502 45.5824C173.44 46.1449 174.164 46.9347 174.675 47.9517C175.192 48.9687 175.451 50.1534 175.451 51.5057C175.451 52.858 175.192 54.0398 174.675 55.0511C174.164 56.0625 173.44 56.8494 172.502 57.4119C171.565 57.9744 170.457 58.2557 169.178 58.2557ZM169.195 55.7841C169.888 55.7841 170.468 55.5937 170.934 55.2131C171.4 54.8267 171.746 54.3097 171.974 53.6619C172.207 53.0142 172.323 52.2926 172.323 51.4972C172.323 50.696 172.207 49.9716 171.974 49.3239C171.746 48.6705 171.4 48.1506 170.934 47.7642C170.468 47.3778 169.888 47.1847 169.195 47.1847C168.485 47.1847 167.894 47.3778 167.423 47.7642C166.957 48.1506 166.607 48.6705 166.374 49.3239C166.147 49.9716 166.033 50.696 166.033 51.4972C166.033 52.2926 166.147 53.0142 166.374 53.6619C166.607 54.3097 166.957 54.8267 167.423 55.2131C167.894 55.5937 168.485 55.7841 169.195 55.7841ZM178.07 58V44.9091H181.061V47.0909H181.197C181.436 46.3352 181.845 45.7528 182.425 45.3438C183.01 44.929 183.678 44.7216 184.428 44.7216C184.598 44.7216 184.788 44.7301 184.999 44.7472C185.214 44.7585 185.393 44.7784 185.536 44.8068V47.6449C185.405 47.5994 185.197 47.5597 184.913 47.5256C184.635 47.4858 184.365 47.4659 184.104 47.4659C183.541 47.4659 183.036 47.5881 182.587 47.8324C182.143 48.071 181.794 48.4034 181.538 48.8295C181.283 49.2557 181.155 49.7472 181.155 50.304V58H178.07ZM192.842 58.2557C191.529 58.2557 190.396 57.983 189.441 57.4375C188.492 56.8864 187.762 56.108 187.251 55.1023C186.739 54.0909 186.484 52.9006 186.484 51.5312C186.484 50.1847 186.739 49.0028 187.251 47.9858C187.768 46.9631 188.489 46.1676 189.415 45.5994C190.342 45.0256 191.43 44.7386 192.68 44.7386C193.487 44.7386 194.248 44.8693 194.964 45.1307C195.685 45.3864 196.322 45.7841 196.873 46.3239C197.43 46.8636 197.867 47.5511 198.185 48.3864C198.504 49.2159 198.663 50.2045 198.663 51.3523V52.2983H187.933V50.2188H195.705C195.7 49.6278 195.572 49.1023 195.322 48.642C195.072 48.1761 194.722 47.8097 194.273 47.5426C193.83 47.2756 193.313 47.142 192.722 47.142C192.092 47.142 191.538 47.2955 191.06 47.6023C190.583 47.9034 190.211 48.3011 189.944 48.7955C189.683 49.2841 189.549 49.821 189.543 50.4062V52.2216C189.543 52.983 189.683 53.6364 189.961 54.1818C190.239 54.7216 190.629 55.1364 191.129 55.4261C191.629 55.7102 192.214 55.8523 192.884 55.8523C193.333 55.8523 193.739 55.7898 194.103 55.6648C194.467 55.5341 194.782 55.3438 195.049 55.0938C195.316 54.8438 195.518 54.5341 195.654 54.1648L198.535 54.4886C198.353 55.25 198.006 55.9148 197.495 56.483C196.989 57.0455 196.342 57.483 195.552 57.7955C194.762 58.1023 193.859 58.2557 192.842 58.2557Z" fill="white"/>
<defs>
<clipPath id="clip0_85_1765">
<rect width="46" height="46" fill="white" transform="translate(30 16.5)"/>
</clipPath>
</defs>
</svg>
