<svg xmlns="http://www.w3.org/2000/svg" width="80" height="80" viewBox="0 0 80 80" fill="none">
  <g clip-path="url(#clip0_85_1830)">
    <path d="M78.6663 15.6914V69.0247C78.6663 71.2331 76.8747 73.0247 74.6663 73.0247H44.9997C44.9997 74.4981 43.8063 75.6914 42.333 75.6914H37.6663C36.193 75.6914 34.9997 74.4981 34.9997 73.0247H5.33301C3.12467 73.0247 1.33301 71.2331 1.33301 69.0247V15.6914C1.33301 13.4831 3.12467 11.6914 5.33301 11.6914H74.6663C76.8747 11.6914 78.6663 13.4831 78.6663 15.6914Z" fill="#EBF0FF"/>
    <path d="M74.7475 15.0247H13.6663C11.4572 15.0247 9.66451 16.8167 9.66451 19.0257V68.6912C9.66701 71.0841 7.72584 73.0247 5.33301 73.0247C3.12384 73.0247 1.33301 71.2339 1.33301 69.0247V15.6914C1.33301 13.4822 3.12384 11.6914 5.33301 11.6914C5.33301 11.6914 74.8073 11.6932 74.8772 11.6969C77.0113 11.8079 76.8845 15.0247 74.7475 15.0247Z" fill="#EBF0FF"/>
    <path d="M40 11.6911C33.0623 6.09514 14 6.4958 7.5 11.6911V63.5245C7.5 64.9978 8.69333 66.1911 10.1667 66.1911H69.8333C71.3067 66.1911 72.5 64.9978 72.5 63.5245V11.6911C66.003 6.49814 46.9417 6.0918 40 11.6911Z" fill="#EBF0FF"/>
    <path d="M72.5 12.0667C72.5 12.5576 72.0412 12.9209 71.5645 12.8039C64.4665 11.0594 53.5598 11.2092 47.4513 14.5997C46.3818 15.1934 45.0908 15.1874 44.0187 14.5987C43.3397 14.2259 42.5963 13.8899 41.8008 13.5902C27.9788 8.38357 13.2417 18.8071 13.2417 33.5772V57.1031C13.2418 57.2649 13.1901 57.4225 13.094 57.5528C12.998 57.6831 12.8627 57.7791 12.708 57.8267C10.6007 58.4726 8.79833 59.3194 7.5 60.3577V11.6911C13.997 6.49807 33.0583 6.09191 40 11.6911C46.829 6.18257 65.4067 6.48457 72.1858 11.4509C72.283 11.5216 72.3621 11.6142 72.4167 11.7212C72.4713 11.8282 72.4998 11.9466 72.5 12.0667Z" fill="#EBF0FF"/>
    <path d="M72.5 60.3573V63.5239C72.5 64.9973 71.3067 66.1906 69.8333 66.1906H10.1667C8.69333 66.1906 7.5 64.9973 7.5 63.5239V60.3573C13.99 55.1689 33.0567 54.7523 40 60.3573C46.9433 54.7523 66.01 55.1689 72.5 60.3573ZM27.5 6.9856V28.4073C27.5 29.9789 25.7683 30.9373 24.4367 30.1006L20.3333 27.5239L16.23 30.1006C14.8983 30.9373 13.1667 29.9789 13.1667 28.4073V7.77727C13.1664 7.16588 13.3761 6.57296 13.7609 6.0978C14.1456 5.62265 14.6819 5.29413 15.28 5.16727C18.2417 4.54227 21.5783 4.25227 24.8767 4.31893C26.3333 4.34727 27.5 5.52893 27.5 6.9856Z" fill="#EBF0FF"/>
    <path d="M24.9188 4.32073C26.5597 4.37707 26.5797 6.81123 24.9422 6.93107C23.0957 7.06623 21.2942 7.31323 19.6137 7.6679C19.0156 7.79476 18.4793 8.12328 18.0945 8.59844C17.7098 9.07359 17.5 9.66652 17.5003 10.2779V28.5056C17.5003 28.7502 17.4382 28.9907 17.3199 29.2048C17.2015 29.4188 17.0307 29.5993 16.8235 29.7292L16.2303 30.1012C14.8987 30.9379 13.167 29.9796 13.167 28.4079V7.7779C13.1667 7.16652 13.3765 6.57359 13.7612 6.09844C14.1459 5.62328 14.6822 5.29476 15.2803 5.1679C18.4787 4.4929 22.2132 4.22773 24.9188 4.32073Z" fill="#EBF0FF"/>
    <path d="M78.6667 15.6425C78.313 15.6425 77.9739 15.783 77.7239 16.033C77.4738 16.2831 77.3333 16.6222 77.3333 16.9758V69.0243C77.3333 70.4948 76.137 71.691 74.6667 71.691H45.0005C44.6469 71.691 44.3078 71.8314 44.0578 72.0814C43.8078 72.3314 43.6673 72.6704 43.6672 73.024C43.667 73.7593 43.0688 74.3577 42.3338 74.3577H37.6667C36.9315 74.3577 36.3333 73.7595 36.3333 73.0243C36.3333 72.6707 36.1929 72.3316 35.9428 72.0815C35.6928 71.8315 35.3536 71.691 35 71.691H5.33333C3.863 71.691 2.66667 70.4948 2.66667 69.0243V15.691C2.66667 14.2205 3.863 13.0243 5.33333 13.0243H6.16667V63.5243C6.16667 65.73 7.96117 67.5243 10.1667 67.5243H69.8333C72.0388 67.5243 73.8333 65.73 73.8333 63.5243V11.691C73.8334 11.4909 73.7884 11.2934 73.7017 11.1131C73.615 10.9329 73.4888 10.7744 73.3325 10.6495C66.5615 5.23716 47.9838 4.70433 40.0025 10.0398C38.8157 9.24166 37.3705 8.55566 35.6908 7.99533C35.3558 7.88515 34.9908 7.91218 34.6757 8.07051C34.3606 8.22883 34.121 8.50554 34.0094 8.84009C33.8979 9.17463 33.9234 9.53975 34.0804 9.85553C34.2374 10.1713 34.5131 10.412 34.8472 10.525C36.6402 11.1232 38.0922 11.8645 39.1627 12.7285C39.3987 12.9182 39.6922 13.0222 39.995 13.0232C40.2978 13.0243 40.592 12.9224 40.8293 12.7343C47.221 7.67016 64.6728 7.90366 71.1667 12.362V57.9372C63.808 54.1473 49.1448 53.8312 41.3333 57.9187V18.6533C41.3333 18.2997 41.1929 17.9606 40.9428 17.7105C40.6928 17.4605 40.3536 17.32 40 17.32C39.6464 17.32 39.3072 17.4605 39.0572 17.7105C38.8071 17.9606 38.6667 18.2997 38.6667 18.6533V57.9125C32.5055 54.6667 22.1493 54.2718 14.641 55.9422C14.4696 55.9797 14.3074 56.0508 14.1635 56.1512C14.0196 56.2516 13.897 56.3794 13.8026 56.5273C13.7082 56.6752 13.6439 56.8402 13.6135 57.013C13.583 57.1858 13.5869 57.3629 13.625 57.5341C13.6632 57.7054 13.7347 57.8675 13.8355 58.011C13.9364 58.1546 14.0646 58.2768 14.2128 58.3707C14.3609 58.4647 14.5262 58.5284 14.6991 58.5583C14.872 58.5883 15.049 58.5838 15.2202 58.5452C22.9153 56.8333 34.2572 57.4362 39.1627 61.3952C39.6535 61.7912 40.3563 61.7862 40.8375 61.3952C47.0507 56.3807 64.6122 56.5283 71.1668 61.0302V63.5243C71.1668 64.2595 70.5687 64.8577 69.8335 64.8577H10.1667C9.4315 64.8577 8.83333 64.2595 8.83333 63.5243V12.363C9.6395 11.8118 10.6533 11.3058 11.8333 10.8642V28.4068C11.8333 31.024 14.7223 32.622 16.9392 31.2298L20.3333 29.0987L23.7275 31.2298C25.9437 32.6218 28.8333 31.0247 28.8333 28.4068V6.98549C28.8333 4.82349 27.0707 3.02899 24.9042 2.98533C22.7475 2.94166 20.597 3.04499 18.513 3.29183C18.1625 3.33419 17.8431 3.51384 17.6249 3.79137C17.4066 4.06891 17.3074 4.42167 17.3489 4.77228C17.3904 5.12289 17.5693 5.44272 17.8463 5.66163C18.1233 5.88054 18.4758 5.98065 18.8265 5.93999C20.7892 5.70766 22.816 5.61066 24.8505 5.65149C25.5887 5.66633 26.1667 6.25233 26.1667 6.98549V28.4068C26.1667 28.9312 25.5903 29.2507 25.1455 28.9713L21.0423 26.395C20.8299 26.2616 20.5842 26.1909 20.3333 26.1909C20.0825 26.1909 19.8368 26.2616 19.6243 26.395L15.5212 28.9713C15.077 29.25 14.5 28.9318 14.5 28.4067C14.5 7.89283 14.5033 9.00516 14.4938 8.90299C14.4202 8.08116 13.6072 7.50933 12.799 7.74233C10.8143 8.31266 8.72117 9.14116 7.05217 10.3575H5.33333C2.3925 10.3575 0 12.75 0 15.6908V69.0242C0 71.965 2.3925 74.3575 5.33333 74.3575H33.8952C34.4455 75.9097 35.9283 77.0242 37.6667 77.0242H42.3338C44.0718 77.0242 45.5547 75.9095 46.1052 74.3575H74.6667C77.6075 74.3575 80 71.965 80 69.0242V16.9758C80 16.6222 79.8595 16.2831 79.6095 16.033C79.3594 15.783 79.0203 15.6425 78.6667 15.6425Z" fill="#646CE6"/>
    <path d="M48.9033 18.8977C49.2975 18.8977 53.7258 17.902 60.1323 18.4972C60.4844 18.5299 60.8351 18.4214 61.1072 18.1955C61.3793 17.9697 61.5506 17.645 61.5833 17.2929C61.616 16.9407 61.5075 16.5901 61.2816 16.3179C61.0558 16.0458 60.7311 15.8746 60.379 15.8419C56.4473 15.4765 52.2911 15.6217 48.6763 16.2505C48.3473 16.3074 48.0516 16.4857 47.8477 16.75C47.6438 17.0144 47.5465 17.3456 47.575 17.6783C47.6036 18.0109 47.7558 18.3208 48.0018 18.5466C48.2477 18.7723 48.5694 18.8976 48.9033 18.8977ZM47.5913 27.7927C47.6212 27.9652 47.6849 28.1302 47.7786 28.2781C47.8723 28.426 47.9943 28.554 48.1375 28.6548C48.2807 28.7556 48.4424 28.8271 48.6133 28.8654C48.7842 28.9036 48.9609 28.9078 49.1335 28.8777C54.2466 27.9882 60.2233 28.1424 65.1211 29.2902C65.4637 29.3662 65.8225 29.304 66.1195 29.1173C66.4166 28.9305 66.6281 28.6342 66.7082 28.2925C66.7882 27.9508 66.7304 27.5914 66.5472 27.2921C66.364 26.9928 66.0702 26.7778 65.7295 26.6937C60.5001 25.4682 54.125 25.3025 48.6765 26.2504C48.3281 26.311 48.018 26.5076 47.8145 26.7968C47.611 27.0861 47.5307 27.4443 47.5913 27.7927ZM47.5913 37.7927C47.6212 37.9652 47.6849 38.1302 47.7786 38.2781C47.8723 38.426 47.9943 38.554 48.1375 38.6548C48.2807 38.7556 48.4424 38.8271 48.6133 38.8654C48.7842 38.9036 48.9609 38.9078 49.1335 38.8777C54.2466 37.9882 60.2233 38.1424 65.1211 39.2902C65.4637 39.3662 65.8225 39.304 66.1195 39.1173C66.4166 38.9305 66.6281 38.6342 66.7082 38.2925C66.7882 37.9509 66.7304 37.5914 66.5472 37.2921C66.364 36.9928 66.0702 36.7778 65.7295 36.6937C60.5001 35.4682 54.125 35.3025 48.6765 36.2504C48.3281 36.311 48.018 36.5076 47.8145 36.7968C47.611 37.0861 47.5307 37.4443 47.5913 37.7927ZM47.5913 47.7927C47.6212 47.9652 47.6849 48.1302 47.7786 48.2781C47.8723 48.426 47.9943 48.5541 48.1375 48.6548C48.2807 48.7556 48.4424 48.8271 48.6133 48.8654C48.7842 48.9036 48.9609 48.9078 49.1335 48.8777C54.2466 47.9882 60.2233 48.1424 65.1211 49.2902C65.4637 49.3662 65.8225 49.304 66.1195 49.1173C66.4166 48.9305 66.6281 48.6342 66.7082 48.2925C66.7882 47.9508 66.7304 47.5914 66.5472 47.2921C66.364 46.9928 66.0702 46.7778 65.7295 46.6937C60.5001 45.4682 54.125 45.3025 48.6765 46.2504C48.3281 46.311 48.018 46.5076 47.8145 46.7968C47.611 47.0861 47.5307 47.4443 47.5913 47.7927ZM14.2705 36.6939C13.9261 36.7745 13.628 36.9887 13.4415 37.2892C13.2551 37.5897 13.1957 37.952 13.2764 38.2963C13.357 38.6406 13.5712 38.9388 13.8717 39.1252C14.1722 39.3116 14.5345 39.371 14.8788 39.2904C19.7765 38.1425 25.7533 37.9884 30.8665 38.8779C31.2138 38.9361 31.5702 38.8546 31.8576 38.651C32.1451 38.4475 32.3403 38.1384 32.4007 37.7914C32.461 37.4444 32.3816 37.0876 32.1798 36.7989C31.978 36.5102 31.6701 36.3131 31.3235 36.2507C25.8743 35.3027 19.4995 35.4684 14.2705 36.6939ZM31.3235 46.2505C27.7528 45.6294 23.644 45.4799 19.7536 45.8299C19.4014 45.8615 19.0763 46.0318 18.8496 46.3033C18.623 46.5747 18.5135 46.925 18.5451 47.2772C18.5606 47.4517 18.6103 47.6214 18.6915 47.7766C18.7727 47.9318 18.8837 48.0695 19.0181 48.1818C19.1526 48.294 19.3079 48.3787 19.4751 48.4308C19.6423 48.483 19.8182 48.5016 19.9926 48.4857C23.6568 48.156 27.5186 48.2954 30.8665 48.8777C31.2138 48.936 31.5702 48.8544 31.8576 48.6509C32.1451 48.4473 32.3403 48.1383 32.4007 47.7912C32.461 47.4442 32.3816 47.0874 32.1798 46.7987C31.978 46.5101 31.6701 46.313 31.3235 46.2505Z" fill="#646CE6"/>
  </g>
  <defs>
    <clipPath id="clip0_85_1830">
      <rect width="80" height="80" fill="white"/>
    </clipPath>
  </defs>
</svg>