<svg xmlns="http://www.w3.org/2000/svg" width="80" height="80" viewBox="0 0 80 80" fill="none">
  <g clip-path="url(#clip0_85_1796)">
    <path d="M51.7834 62.4203H48.0429C45.1198 58.2882 43.781 53.2242 44.3557 48.09C45.5742 47.6666 46.751 47.0582 47.8512 46.2648C60.7527 36.9667 65.57 21.9927 63.1432 6.57283C62.8715 4.84594 61.3747 3.5791 59.6278 3.5791H20.3692C18.6106 3.5791 17.1254 4.86594 16.8487 6.60284C14.4387 21.8062 19.3364 36.7645 32.0491 46.1414C33.1759 46.9732 34.3861 47.6116 35.6412 48.055C36.2238 53.1887 34.8941 58.2689 31.9574 62.4203H28.2169C26.19 62.4203 24.4847 63.9355 24.2447 65.9474L22.9979 76.4221H57.0024L55.7556 65.9474C55.5155 63.9355 53.8103 62.4203 51.7834 62.4203Z" fill="#EBF0FF"/>
    <path d="M51.9979 62.4251C53.7033 62.5156 53.5999 65.0865 51.8922 65.0865H32.7176C30.6907 65.0865 28.9855 66.6017 28.7454 68.6136L27.8153 76.4213H22.998L24.2448 65.9466C24.4849 63.9347 26.1901 62.4195 28.217 62.4195C28.217 62.4195 51.9269 62.4215 51.9979 62.4251ZM40.1588 46.5315C40.9987 47.4178 40.3091 48.8698 39.0913 48.7803C36.6008 48.5973 34.1658 47.703 32.0492 46.1405C19.4944 36.8801 14.4049 22.0196 16.8489 6.60186C17.1256 4.86496 18.6108 3.57812 20.3693 3.57812H59.6279C61.3479 3.57812 62.8685 4.81279 63.1465 6.59169C63.3099 7.637 62.4928 8.57879 61.435 8.57879H33.7044C31.9459 8.57879 30.4607 9.86563 30.184 11.6025C28.1434 24.4757 31.3446 37.2299 40.1588 46.5315Z" fill="#E8F3FF"/>
    <path d="M48.0435 62.4199H31.958C34.8947 58.2685 36.2246 53.1882 35.6418 48.0547C38.4689 49.0565 41.5243 49.0715 44.3563 48.0897C43.7818 53.2209 45.1188 58.2854 48.0435 62.4199Z" fill="#EBF0FF"/>
    <path d="M35.9169 62.4199H31.958C34.8947 58.2685 36.2244 53.1882 35.6418 48.0547C36.3953 48.3219 37.1713 48.5204 37.9605 48.6479C38.5904 48.7496 39.0716 49.2724 39.0928 49.9101C39.2268 53.9266 38.5696 57.9185 37.1612 61.5697C36.9632 62.0829 36.4671 62.4199 35.9169 62.4199Z" fill="#EBF0FF"/>
    <path d="M40.0008 38.0837C47.4577 38.0837 53.5026 32.0387 53.5026 24.5819C53.5026 17.125 47.4577 11.0801 40.0008 11.0801C32.544 11.0801 26.499 17.125 26.499 24.5819C26.499 32.0387 32.544 38.0837 40.0008 38.0837Z" fill="#EBF0FF"/>
    <path d="M31.2872 34.9027C26.2224 30.6505 25.0611 23.339 28.3525 17.7465C28.7014 17.1537 29.6128 17.3997 29.598 18.0873C29.4805 23.5377 30.3661 29.0455 32.343 34.157C32.5931 34.8037 31.8183 35.3486 31.2872 34.9027Z" fill="#EBF0FF"/>
    <path d="M45.2242 21.5544C46.8661 21.7928 47.5212 23.8097 46.3327 24.9665L44.6175 26.6384L45.0225 28.9987C45.3026 30.634 43.5873 31.8791 42.1205 31.1074L40.0002 29.9939L37.8799 31.1074C36.4131 31.8791 34.6978 30.634 34.9779 28.9987L35.3829 26.6384L33.6677 24.9665C32.4792 23.8097 33.1343 21.7928 34.7762 21.5544L37.1465 21.2094L38.2066 19.0624C38.9401 17.5755 41.0603 17.5755 41.7938 19.0624L42.8539 21.2094L45.2242 21.5544Z" fill="#EBF0FF"/>
    <path d="M24.642 41.4107C24.9662 42.234 24.6021 43.5976 23.5595 45.4634C23.3888 45.772 23.3473 46.1356 23.4441 46.4748C23.5409 46.8139 23.7681 47.1009 24.0759 47.2729C24.3838 47.4449 24.7472 47.488 25.0868 47.3927C25.4263 47.2974 25.7143 47.0715 25.8877 46.7644C27.3325 44.179 28.2741 41.3057 26.3024 39.1122C26.2519 38.9414 26.1676 38.7825 26.0545 38.645C19.0599 30.114 16.2585 18.8087 18.1665 6.81106C18.3415 5.71075 19.2676 4.91214 20.3689 4.91214H59.6278C59.9815 4.91214 60.3207 4.77165 60.5708 4.52156C60.8208 4.27148 60.9613 3.9323 60.9613 3.57863C60.9613 3.22496 60.8208 2.88578 60.5708 2.63569C60.3207 2.38561 59.9815 2.24512 59.6278 2.24512H20.3689C17.9486 2.24512 15.9147 3.98918 15.5326 6.39217C15.4773 6.74334 15.4256 7.09507 15.3776 7.44731C13.7609 5.97711 11.4074 5.21818 8.78637 5.42537C0.498767 6.08346 -2.70383 16.4794 2.58338 26.4685C6.91746 34.6573 13.9971 36.9306 19.1661 38.5905C21.8476 39.4516 24.1631 40.1952 24.642 41.4107ZM4.94053 25.221C0.648621 17.1119 2.66139 8.58696 8.9974 8.08406C14.3728 7.65667 16.8575 12.6232 13.1041 15.6756C12.8297 15.8987 12.6552 16.2218 12.619 16.5736C12.5828 16.9254 12.6878 17.2772 12.911 17.5516C13.1342 17.826 13.4572 18.0004 13.809 18.0367C14.1608 18.0729 14.5126 17.9679 14.787 17.7447C14.8749 17.6731 14.9613 17.5998 15.0464 17.5248C15.5641 24.4031 17.6432 30.8423 21.1839 36.4408C15.4643 34.5526 8.9829 32.8582 4.94053 25.221ZM71.2144 5.42537C67.2888 5.11333 63.673 7.00992 62.6654 10.6091C62.4314 10.8714 62.3109 11.2157 62.3302 11.5667C62.7691 19.6978 61.3704 34.8771 47.0715 45.1833C43.7889 47.5493 39.7795 48.0912 36.1482 46.8216C36.119 46.8099 36.0895 46.7992 36.0595 46.7897C34.9392 46.3882 33.8552 45.8158 32.8416 45.0682C32.5569 44.8582 32.2006 44.77 31.8509 44.8228C31.5012 44.8756 31.1868 45.0652 30.9768 45.3499C30.7669 45.6345 30.6787 45.9909 30.7315 46.3406C30.7843 46.6903 30.9739 47.0047 31.2585 47.2146C32.228 47.9311 33.2788 48.5303 34.3891 48.9997C34.7178 53.4972 33.4733 57.9691 30.8687 61.6502C30.4041 62.3096 30.6256 63.2379 31.3549 63.6085C31.7833 63.8258 30.3854 63.7535 51.7831 63.7535C53.1333 63.7535 54.2719 64.7645 54.4315 66.1053L55.5009 75.0883H24.4998L25.5693 66.1053C25.6135 65.7259 25.7394 65.3606 25.9383 65.0345C26.0295 64.8849 26.0902 64.7189 26.1172 64.5458C26.1441 64.3728 26.1367 64.1961 26.0954 64.0259C26.0541 63.8557 25.9796 63.6954 25.8763 63.554C25.773 63.4125 25.6428 63.2929 25.4933 63.2018C25.3437 63.1106 25.1777 63.0498 25.0047 63.0229C24.8316 62.9959 24.655 63.0033 24.4848 63.0446C24.3147 63.0859 24.1543 63.1604 24.0129 63.2636C23.8715 63.3669 23.7518 63.4971 23.6607 63.6466C23.2622 64.2992 23.0099 65.0303 22.9209 65.7898L21.8139 75.0882H19.831C19.4773 75.0882 19.1382 75.2287 18.8881 75.4788C18.638 75.7288 18.4975 76.068 18.4975 76.4217C18.4975 76.7754 18.638 77.1145 18.8881 77.3646C19.1382 77.6147 19.4773 77.7552 19.831 77.7552H60.1697C60.5234 77.7552 60.8626 77.6147 61.1127 77.3646C61.3627 77.1145 61.5032 76.7754 61.5032 76.4217C61.5032 76.068 61.3627 75.7288 61.1127 75.4788C60.8626 75.2287 60.5234 75.0882 60.1697 75.0882H58.1868L57.0798 65.7898C56.7604 63.1084 54.4835 61.0863 51.7831 61.0863H48.7495C47.4294 59.0764 46.5031 56.8727 45.9957 54.5249C45.9587 54.3538 45.8884 54.1915 45.7887 54.0476C45.689 53.9036 45.562 53.7806 45.4148 53.6857C45.2676 53.5909 45.1032 53.5259 44.9309 53.4946C44.7586 53.4633 44.5818 53.4663 44.4106 53.5033C44.0649 53.578 43.7631 53.7869 43.5715 54.0842C43.3798 54.3814 43.3141 54.7426 43.3888 55.0883C43.8412 57.1867 44.5986 59.2075 45.637 61.0863H34.3629C36.2574 57.649 37.2023 53.7692 37.1005 49.8458C40.9805 50.6514 45.1286 49.8715 48.631 47.347C50.1747 46.2343 51.5759 45.0688 52.8511 43.8645C53.1001 44.7393 53.5175 45.6986 54.1131 46.7644C54.4735 47.4096 55.2872 47.6362 55.9277 47.278C56.2364 47.1054 56.4639 46.8173 56.5603 46.477C56.6566 46.1367 56.6138 45.7721 56.4412 45.4634C55.3986 43.5976 55.0345 42.234 55.3588 41.4107C55.8377 40.1952 58.1533 39.4516 60.8347 38.5905C66.0038 36.9306 73.0833 34.6573 77.4174 26.4685C82.7147 16.4602 79.4788 6.08163 71.2144 5.42537ZM75.0602 25.221C71.2339 32.45 65.0155 34.4469 60.0192 36.0513C59.6698 36.1635 59.3284 36.2732 58.9949 36.3825C63.0386 29.9056 64.5308 23.0916 64.937 17.5092C65.0277 17.5896 65.12 17.6682 65.2139 17.7449C65.4889 17.9621 65.8383 18.0623 66.1866 18.0239C66.5349 17.9856 66.8541 17.8117 67.0752 17.5398C67.2963 17.268 67.4016 16.92 67.3682 16.5712C67.3348 16.2224 67.1655 15.9007 66.8968 15.6757C63.1355 12.6168 65.6416 7.65751 71.0035 8.08423C77.3807 8.59013 79.3188 17.1749 75.0602 25.221Z" fill="#646CE6"/>
    <path d="M48.0017 71.2544C48.3553 71.2544 48.6945 71.1139 48.9446 70.8638C49.1947 70.6137 49.3352 70.2745 49.3352 69.9208C49.3352 69.5672 49.1947 69.228 48.9446 68.9779C48.6945 68.7278 48.3553 68.5873 48.0017 68.5873H31.9995C31.6459 68.5873 31.3067 68.7278 31.0566 68.9779C30.8065 69.228 30.666 69.5672 30.666 69.9208C30.666 70.2745 30.8065 70.6137 31.0566 70.8638C31.3067 71.1139 31.6459 71.2544 31.9995 71.2544H48.0017ZM45.4168 20.2347L43.7399 19.9912L42.99 18.4718C41.7675 15.9945 38.233 15.9957 37.011 18.4718L35.9509 20.6199C35.8734 20.777 35.8276 20.9477 35.8161 21.1225C35.8046 21.2972 35.8276 21.4725 35.8838 21.6384C35.9401 21.8042 36.0284 21.9574 36.1439 22.0891C36.2593 22.2208 36.3995 22.3284 36.5566 22.4059C36.8737 22.5624 37.24 22.5866 37.575 22.473C37.7408 22.4167 37.894 22.3284 38.0257 22.213C38.1574 22.0975 38.265 21.9573 38.3425 21.8003L39.4027 19.652C39.6477 19.1554 40.3535 19.1556 40.5985 19.652L41.6586 21.8001C41.7543 21.994 41.8957 22.1617 42.0706 22.2887C42.2455 22.4158 42.4487 22.4985 42.6626 22.5295L45.0333 22.8739C45.5812 22.9536 45.7992 23.6247 45.4028 24.0112L43.6874 25.6833C43.5326 25.8342 43.4168 26.0205 43.35 26.2261C43.2831 26.4317 43.2673 26.6505 43.3039 26.8636L43.7089 29.2246C43.8024 29.7707 43.2312 30.1849 42.7415 29.9275L40.621 28.8127C40.4297 28.712 40.2167 28.6594 40.0005 28.6594C39.7843 28.6594 39.5713 28.712 39.38 28.8127L37.2596 29.9275C36.7697 30.1852 36.1986 29.7703 36.2921 29.2246L36.6972 26.8636C36.7337 26.6505 36.7179 26.4317 36.6511 26.2261C36.5842 26.0205 36.4684 25.8342 36.3136 25.6833L34.5982 24.0112C34.4728 23.889 34.3245 23.7926 34.1619 23.7277C33.9993 23.6628 33.8254 23.6305 33.6503 23.6327C33.4752 23.635 33.3023 23.6717 33.1413 23.7408C32.9804 23.8099 32.8347 23.91 32.7125 24.0354C32.5902 24.1608 32.4939 24.3091 32.4289 24.4717C32.364 24.6343 32.3317 24.8082 32.334 24.9833C32.3362 25.1584 32.3729 25.3313 32.442 25.4923C32.5111 25.6532 32.6112 25.7989 32.7366 25.9211L33.95 27.104L33.6634 28.774C33.1965 31.4969 36.0562 33.5732 38.5006 32.2883L40.0004 31.4999L41.5003 32.2883C43.9448 33.5738 46.804 31.4959 46.3374 28.7739L46.0509 27.1038L47.2642 25.921C49.2427 23.9929 48.1493 20.6319 45.4168 20.2347Z" fill="#646CE6"/>
    <path d="M52.1008 23.2881C52.1192 23.4622 52.1717 23.6311 52.2553 23.7849C52.3389 23.9388 52.452 24.0747 52.5881 24.1849C52.7242 24.295 52.8808 24.3773 53.0487 24.427C53.2166 24.4766 53.3927 24.4928 53.5668 24.4744C53.741 24.456 53.9098 24.4035 54.0637 24.3199C54.2176 24.2363 54.3535 24.1232 54.4636 23.9871C54.5738 23.8509 54.656 23.6944 54.7057 23.5265C54.7554 23.3586 54.7715 23.1825 54.7532 23.0084C53.9555 15.4477 47.6132 9.74609 40.0004 9.74609C31.8201 9.74609 25.165 16.4011 25.165 24.5814C25.165 32.7617 31.8201 39.4167 40.0004 39.4167C45.2747 39.4167 50.1959 36.5792 52.8437 32.0111C52.9338 31.8595 52.993 31.6915 53.0177 31.5169C53.0424 31.3423 53.0323 31.1645 52.9879 30.9939C52.9435 30.8232 52.8656 30.6631 52.7589 30.5227C52.6522 30.3823 52.5187 30.2645 52.3661 30.1761C52.2135 30.0876 52.0449 30.0303 51.8701 30.0075C51.6952 29.9847 51.5176 29.9968 51.3474 30.043C51.1772 30.0893 51.0179 30.1689 50.8787 30.2771C50.7395 30.3854 50.6232 30.5202 50.5364 30.6737C48.364 34.4216 44.3268 36.7497 40.0004 36.7497C33.2908 36.7497 27.8321 31.291 27.8321 24.5814C27.8321 17.8718 33.2908 12.4131 40.0004 12.4131C46.2447 12.4129 51.4467 17.0882 52.1008 23.2881Z" fill="#646CE6"/>
  </g>
  <defs>
    <clipPath id="clip0_85_1796">
      <rect width="80" height="80" fill="white"/>
    </clipPath>
  </defs>
</svg>