<svg width="251" height="80" viewBox="0 0 251 80" fill="none" xmlns="http://www.w3.org/2000/svg">
<rect width="251" height="80" rx="15" fill="#323232"/>
<path d="M51.1472 38.9708L32.1698 59.1875C32.3829 59.9554 32.7659 60.6636 33.2895 61.258C33.813 61.8524 34.4633 62.3172 35.1906 62.6168C35.9179 62.9165 36.7029 63.0431 37.4857 62.987C38.2685 62.9309 39.0283 62.6936 39.7071 62.2931L61.0602 49.9275L51.1472 38.9708Z" fill="#EA4335"/>
<path d="M70.3366 35.5343L61.1028 30.1565L50.709 39.4306L61.1451 49.8985L70.3086 44.5783C71.1204 44.146 71.8003 43.4962 72.2748 42.699C72.7492 41.9019 73 40.9879 73 40.0562C73 39.1245 72.7492 38.2105 72.2748 37.4134C71.8003 36.6163 71.1204 35.9664 70.3086 35.5342L70.3366 35.5343Z" fill="#FBBC04"/>
<path d="M32.1698 20.8248C32.0552 21.256 31.9981 21.7009 32 22.1476V57.8645C32.0012 58.311 32.0582 58.7556 32.1698 59.1875L51.7978 39.4884L32.1698 20.8248Z" fill="#4285F4"/>
<path d="M51.2886 40.0061L61.1028 30.1565L39.7779 17.7333C38.9755 17.2556 38.063 17.0025 37.1332 17C34.8258 16.9955 32.7973 18.5526 32.1698 20.8105L51.2886 40.0061Z" fill="#34A853"/>
<path d="M87.6847 31.6811C86.9361 31.6811 86.268 31.4899 85.6804 31.1076C85.0968 30.7212 84.638 30.1719 84.304 29.4595C83.974 28.7431 83.8089 27.8839 83.8089 26.8817C83.8089 25.8796 83.976 25.0224 84.31 24.31C84.6481 23.5977 85.1109 23.0523 85.6985 22.674C86.2861 22.2957 86.9522 22.1065 87.6967 22.1065C88.2723 22.1065 88.7351 22.2031 89.0852 22.3963C89.4394 22.5855 89.7131 22.8068 89.9062 23.0604C90.1035 23.3139 90.2564 23.5373 90.3651 23.7305H90.4737V19.1364H92.2788V31.5H90.516V30.0572H90.3651C90.2564 30.2544 90.0994 30.4798 89.8942 30.7333C89.6929 30.9869 89.4152 31.2082 89.0611 31.3974C88.7069 31.5865 88.2481 31.6811 87.6847 31.6811ZM88.0831 30.1417C88.6023 30.1417 89.041 30.0049 89.3991 29.7312C89.7614 29.4535 90.035 29.0691 90.2202 28.5781C90.4093 28.0871 90.5039 27.5156 90.5039 26.8636C90.5039 26.2197 90.4113 25.6562 90.2262 25.1733C90.0411 24.6903 89.7694 24.314 89.4112 24.0444C89.053 23.7747 88.6103 23.6399 88.0831 23.6399C87.5398 23.6399 87.087 23.7808 86.7248 24.0625C86.3626 24.3442 86.0889 24.7286 85.9038 25.2156C85.7227 25.7025 85.6321 26.2519 85.6321 26.8636C85.6321 27.4834 85.7247 28.0408 85.9098 28.5359C86.0949 29.0309 86.3686 29.4233 86.7308 29.7131C87.0971 29.9988 87.5478 30.1417 88.0831 30.1417ZM98.7609 31.6871C97.8916 31.6871 97.133 31.4879 96.485 31.0895C95.837 30.6911 95.334 30.1336 94.9758 29.4173C94.6176 28.7009 94.4385 27.8638 94.4385 26.9059C94.4385 25.944 94.6176 25.1029 94.9758 24.3825C95.334 23.662 95.837 23.1026 96.485 22.7042C97.133 22.3058 97.8916 22.1065 98.7609 22.1065C99.6302 22.1065 100.389 22.3058 101.037 22.7042C101.685 23.1026 102.188 23.662 102.546 24.3825C102.904 25.1029 103.083 25.944 103.083 26.9059C103.083 27.8638 102.904 28.7009 102.546 29.4173C102.188 30.1336 101.685 30.6911 101.037 31.0895C100.389 31.4879 99.6302 31.6871 98.7609 31.6871ZM98.767 30.1719C99.3304 30.1719 99.7973 30.023 100.168 29.7251C100.538 29.4273 100.811 29.0309 100.989 28.5359C101.17 28.0408 101.26 27.4955 101.26 26.8999C101.26 26.3082 101.17 25.7649 100.989 25.2699C100.811 24.7708 100.538 24.3704 100.168 24.0685C99.7973 23.7667 99.3304 23.6158 98.767 23.6158C98.1995 23.6158 97.7286 23.7667 97.3543 24.0685C96.984 24.3704 96.7084 24.7708 96.5273 25.2699C96.3502 25.7649 96.2616 26.3082 96.2616 26.8999C96.2616 27.4955 96.3502 28.0408 96.5273 28.5359C96.7084 29.0309 96.984 29.4273 97.3543 29.7251C97.7286 30.023 98.1995 30.1719 98.767 30.1719ZM106.826 31.5L104.098 22.2273H105.963L107.78 29.0369H107.871L109.694 22.2273H111.559L113.37 29.0067H113.461L115.266 22.2273H117.131L114.409 31.5H112.567L110.684 24.805H110.545L108.661 31.5H106.826ZM120.649 25.9943V31.5H118.844V22.2273H120.577V23.7365H120.692C120.905 23.2455 121.239 22.8511 121.694 22.5533C122.153 22.2554 122.73 22.1065 123.426 22.1065C124.058 22.1065 124.612 22.2393 125.086 22.505C125.561 22.7666 125.93 23.157 126.191 23.6761C126.453 24.1953 126.584 24.8372 126.584 25.6019V31.5H124.779V25.8192C124.779 25.1471 124.604 24.6219 124.253 24.2436C123.903 23.8613 123.422 23.6701 122.811 23.6701C122.392 23.6701 122.02 23.7607 121.694 23.9418C121.372 24.1229 121.116 24.3885 120.927 24.7386C120.742 25.0848 120.649 25.5033 120.649 25.9943ZM130.809 19.1364V31.5H129.004V19.1364H130.809ZM137.144 31.6871C136.274 31.6871 135.516 31.4879 134.868 31.0895C134.22 30.6911 133.717 30.1336 133.359 29.4173C133 28.7009 132.821 27.8638 132.821 26.9059C132.821 25.944 133 25.1029 133.359 24.3825C133.717 23.662 134.22 23.1026 134.868 22.7042C135.516 22.3058 136.274 22.1065 137.144 22.1065C138.013 22.1065 138.772 22.3058 139.42 22.7042C140.068 23.1026 140.571 23.662 140.929 24.3825C141.287 25.1029 141.466 25.944 141.466 26.9059C141.466 27.8638 141.287 28.7009 140.929 29.4173C140.571 30.1336 140.068 30.6911 139.42 31.0895C138.772 31.4879 138.013 31.6871 137.144 31.6871ZM137.15 30.1719C137.713 30.1719 138.18 30.023 138.55 29.7251C138.921 29.4273 139.194 29.0309 139.371 28.5359C139.552 28.0408 139.643 27.4955 139.643 26.8999C139.643 26.3082 139.552 25.7649 139.371 25.2699C139.194 24.7708 138.921 24.3704 138.55 24.0685C138.18 23.7667 137.713 23.6158 137.15 23.6158C136.582 23.6158 136.111 23.7667 135.737 24.0685C135.367 24.3704 135.091 24.7708 134.91 25.2699C134.733 25.7649 134.644 26.3082 134.644 26.8999C134.644 27.4955 134.733 28.0408 134.91 28.5359C135.091 29.0309 135.367 29.4273 135.737 29.7251C136.111 30.023 136.582 30.1719 137.15 30.1719ZM146.18 31.7053C145.592 31.7053 145.061 31.5966 144.586 31.3793C144.111 31.1579 143.735 30.8379 143.457 30.4194C143.183 30.0008 143.046 29.4877 143.046 28.88C143.046 28.3568 143.147 27.9261 143.348 27.5881C143.549 27.25 143.821 26.9824 144.163 26.7852C144.505 26.5879 144.888 26.439 145.31 26.3384C145.733 26.2378 146.163 26.1613 146.602 26.109C147.157 26.0446 147.608 25.9923 147.954 25.9521C148.3 25.9078 148.552 25.8374 148.709 25.7408C148.866 25.6442 148.944 25.4872 148.944 25.2699V25.2276C148.944 24.7004 148.796 24.2919 148.498 24.0021C148.204 23.7124 147.765 23.5675 147.182 23.5675C146.574 23.5675 146.095 23.7023 145.745 23.9719C145.399 24.2376 145.159 24.5334 145.026 24.8594L143.33 24.473C143.531 23.9096 143.825 23.4548 144.211 23.1087C144.602 22.7585 145.051 22.505 145.558 22.348C146.065 22.187 146.598 22.1065 147.157 22.1065C147.528 22.1065 147.92 22.1508 148.335 22.2393C148.753 22.3239 149.144 22.4808 149.506 22.7102C149.872 22.9396 150.172 23.2676 150.405 23.6942C150.639 24.1168 150.756 24.6662 150.756 25.3423V31.5H148.993V30.2322H148.92C148.804 30.4657 148.628 30.6951 148.395 30.9205C148.162 31.1458 147.862 31.333 147.496 31.4819C147.129 31.6308 146.691 31.7053 146.18 31.7053ZM146.572 30.2564C147.071 30.2564 147.498 30.1578 147.852 29.9606C148.21 29.7634 148.482 29.5058 148.667 29.1879C148.856 28.8659 148.95 28.5218 148.95 28.1555V26.9602C148.886 27.0246 148.761 27.085 148.576 27.1413C148.395 27.1937 148.188 27.2399 147.954 27.2802C147.721 27.3164 147.494 27.3506 147.272 27.3828C147.051 27.411 146.866 27.4351 146.717 27.4553C146.367 27.4995 146.047 27.574 145.757 27.6786C145.471 27.7833 145.242 27.9342 145.069 28.1314C144.9 28.3246 144.815 28.5821 144.815 28.9041C144.815 29.3509 144.98 29.6889 145.31 29.9183C145.64 30.1437 146.061 30.2564 146.572 30.2564ZM156.631 31.6811C155.882 31.6811 155.214 31.4899 154.627 31.1076C154.043 30.7212 153.584 30.1719 153.25 29.4595C152.92 28.7431 152.755 27.8839 152.755 26.8817C152.755 25.8796 152.922 25.0224 153.256 24.31C153.594 23.5977 154.057 23.0523 154.645 22.674C155.232 22.2957 155.898 22.1065 156.643 22.1065C157.219 22.1065 157.681 22.2031 158.032 22.3963C158.386 22.5855 158.659 22.8068 158.853 23.0604C159.05 23.3139 159.203 23.5373 159.311 23.7305H159.42V19.1364H161.225V31.5H159.462V30.0572H159.311C159.203 30.2544 159.046 30.4798 158.84 30.7333C158.639 30.9869 158.362 31.2082 158.007 31.3974C157.653 31.5865 157.194 31.6811 156.631 31.6811ZM157.029 30.1417C157.549 30.1417 157.987 30.0049 158.345 29.7312C158.708 29.4535 158.981 29.0691 159.166 28.5781C159.356 28.0871 159.45 27.5156 159.45 26.8636C159.45 26.2197 159.358 25.6562 159.172 25.1733C158.987 24.6903 158.716 24.314 158.358 24.0444C157.999 23.7747 157.557 23.6399 157.029 23.6399C156.486 23.6399 156.033 23.7808 155.671 24.0625C155.309 24.3442 155.035 24.7286 154.85 25.2156C154.669 25.7025 154.578 26.2519 154.578 26.8636C154.578 27.4834 154.671 28.0408 154.856 28.5359C155.041 29.0309 155.315 29.4233 155.677 29.7131C156.043 29.9988 156.494 30.1417 157.029 30.1417ZM172.206 31.6871C171.337 31.6871 170.578 31.4879 169.93 31.0895C169.282 30.6911 168.779 30.1336 168.421 29.4173C168.063 28.7009 167.884 27.8638 167.884 26.9059C167.884 25.944 168.063 25.1029 168.421 24.3825C168.779 23.662 169.282 23.1026 169.93 22.7042C170.578 22.3058 171.337 22.1065 172.206 22.1065C173.076 22.1065 173.834 22.3058 174.482 22.7042C175.13 23.1026 175.633 23.662 175.991 24.3825C176.35 25.1029 176.529 25.944 176.529 26.9059C176.529 27.8638 176.35 28.7009 175.991 29.4173C175.633 30.1336 175.13 30.6911 174.482 31.0895C173.834 31.4879 173.076 31.6871 172.206 31.6871ZM172.212 30.1719C172.776 30.1719 173.243 30.023 173.613 29.7251C173.983 29.4273 174.257 29.0309 174.434 28.5359C174.615 28.0408 174.706 27.4955 174.706 26.8999C174.706 26.3082 174.615 25.7649 174.434 25.2699C174.257 24.7708 173.983 24.3704 173.613 24.0685C173.243 23.7667 172.776 23.6158 172.212 23.6158C171.645 23.6158 171.174 23.7667 170.8 24.0685C170.429 24.3704 170.154 24.7708 169.973 25.2699C169.795 25.7649 169.707 26.3082 169.707 26.8999C169.707 27.4955 169.795 28.0408 169.973 28.5359C170.154 29.0309 170.429 29.4273 170.8 29.7251C171.174 30.023 171.645 30.1719 172.212 30.1719ZM180.349 25.9943V31.5H178.544V22.2273H180.276V23.7365H180.391C180.604 23.2455 180.938 22.8511 181.393 22.5533C181.852 22.2554 182.429 22.1065 183.126 22.1065C183.757 22.1065 184.311 22.2393 184.786 22.505C185.261 22.7666 185.629 23.157 185.89 23.6761C186.152 24.1953 186.283 24.8372 186.283 25.6019V31.5H184.478V25.8192C184.478 25.1471 184.303 24.6219 183.953 24.2436C183.602 23.8613 183.122 23.6701 182.51 23.6701C182.091 23.6701 181.719 23.7607 181.393 23.9418C181.071 24.1229 180.815 24.3885 180.626 24.7386C180.441 25.0848 180.349 25.5033 180.349 25.9943ZM197.531 22.2273V23.6761H192.466V22.2273H197.531ZM193.824 20.0057H195.63V28.7773C195.63 29.1275 195.682 29.3911 195.786 29.5682C195.891 29.7412 196.026 29.86 196.191 29.9244C196.36 29.9847 196.543 30.0149 196.74 30.0149C196.885 30.0149 197.012 30.0049 197.121 29.9847C197.229 29.9646 197.314 29.9485 197.374 29.9364L197.7 31.4276C197.596 31.4678 197.447 31.508 197.253 31.5483C197.06 31.5926 196.819 31.6167 196.529 31.6207C196.054 31.6288 195.611 31.5443 195.201 31.3672C194.79 31.1901 194.458 30.9164 194.205 30.5462C193.951 30.1759 193.824 29.7111 193.824 29.1516V20.0057ZM201.532 25.9943V31.5H199.727V19.1364H201.508V23.7365H201.623C201.84 23.2375 202.172 22.841 202.619 22.5472C203.066 22.2534 203.649 22.1065 204.369 22.1065C205.005 22.1065 205.561 22.2373 206.036 22.4989C206.515 22.7605 206.885 23.1509 207.146 23.6701C207.412 24.1853 207.545 24.8292 207.545 25.6019V31.5H205.74V25.8192C205.74 25.1391 205.565 24.6119 205.215 24.2376C204.865 23.8593 204.378 23.6701 203.754 23.6701C203.327 23.6701 202.945 23.7607 202.607 23.9418C202.273 24.1229 202.009 24.3885 201.816 24.7386C201.627 25.0848 201.532 25.5033 201.532 25.9943ZM213.95 31.6871C213.037 31.6871 212.25 31.492 211.59 31.1016C210.934 30.7071 210.427 30.1538 210.068 29.4414C209.714 28.725 209.537 27.8859 209.537 26.924C209.537 25.9742 209.714 25.1371 210.068 24.4126C210.427 23.6882 210.926 23.1228 211.566 22.7163C212.209 22.3098 212.962 22.1065 213.823 22.1065C214.347 22.1065 214.854 22.1931 215.345 22.3661C215.836 22.5392 216.276 22.8108 216.667 23.1811C217.057 23.5514 217.365 24.0323 217.59 24.6239C217.816 25.2115 217.928 25.9259 217.928 26.767V27.407H210.557V26.0547H216.16C216.16 25.5798 216.063 25.1592 215.87 24.793C215.677 24.4227 215.405 24.1309 215.055 23.9176C214.709 23.7043 214.302 23.5977 213.835 23.5977C213.328 23.5977 212.886 23.7224 212.507 23.9719C212.133 24.2174 211.843 24.5394 211.638 24.9379C211.437 25.3323 211.336 25.7609 211.336 26.2237V27.2802C211.336 27.9 211.445 28.4272 211.662 28.8619C211.883 29.2965 212.191 29.6286 212.586 29.858C212.98 30.0833 213.441 30.196 213.968 30.196C214.31 30.196 214.622 30.1477 214.904 30.0511C215.186 29.9505 215.429 29.8016 215.634 29.6044C215.84 29.4072 215.997 29.1637 216.105 28.8739L217.814 29.1818C217.677 29.6849 217.431 30.1256 217.077 30.5039C216.727 30.8782 216.286 31.17 215.755 31.3793C215.228 31.5845 214.626 31.6871 213.95 31.6871Z" fill="white"/>
<path d="M96.4148 46.6193C96.2727 46.1591 96.0767 45.7472 95.8267 45.3835C95.5824 45.0142 95.2869 44.6989 94.9403 44.4375C94.5994 44.1761 94.2074 43.9801 93.7642 43.8494C93.321 43.7131 92.8381 43.6449 92.3153 43.6449C91.3778 43.6449 90.5426 43.8807 89.8097 44.3523C89.0767 44.8239 88.5 45.517 88.0795 46.4318C87.6648 47.3409 87.4574 48.4489 87.4574 49.7557C87.4574 51.0739 87.6648 52.1903 88.0795 53.1051C88.4943 54.0199 89.071 54.7159 89.8097 55.1932C90.5483 55.6648 91.4063 55.9006 92.3835 55.9006C93.2699 55.9006 94.0369 55.7301 94.6847 55.3892C95.3381 55.0483 95.8409 54.5653 96.1932 53.9403C96.5455 53.3097 96.7216 52.571 96.7216 51.7244L97.4375 51.8352H92.6989V49.3636H99.7812V51.4602C99.7812 52.9545 99.4631 54.2472 98.8267 55.3381C98.1903 56.429 97.3153 57.2699 96.2017 57.8608C95.0881 58.446 93.8097 58.7386 92.3665 58.7386C90.7585 58.7386 89.3466 58.3778 88.1307 57.6562C86.9205 56.929 85.9744 55.8977 85.2926 54.5625C84.6165 53.2216 84.2784 51.6307 84.2784 49.7898C84.2784 48.3807 84.4773 47.1222 84.875 46.0142C85.2784 44.9062 85.8409 43.9659 86.5625 43.1932C87.2841 42.4148 88.1307 41.8239 89.1023 41.4205C90.0739 41.0114 91.1307 40.8068 92.2727 40.8068C93.2386 40.8068 94.1392 40.9489 94.9744 41.233C95.8097 41.5114 96.5511 41.9091 97.1989 42.4261C97.8523 42.9432 98.3892 43.5568 98.8097 44.267C99.2301 44.9773 99.5057 45.7614 99.6364 46.6193H96.4148ZM108.413 58.7557C107.134 58.7557 106.026 58.4744 105.089 57.9119C104.151 57.3494 103.424 56.5625 102.907 55.5511C102.396 54.5398 102.14 53.358 102.14 52.0057C102.14 50.6534 102.396 49.4687 102.907 48.4517C103.424 47.4347 104.151 46.6449 105.089 46.0824C106.026 45.5199 107.134 45.2386 108.413 45.2386C109.691 45.2386 110.799 45.5199 111.737 46.0824C112.674 46.6449 113.398 47.4347 113.91 48.4517C114.427 49.4687 114.685 50.6534 114.685 52.0057C114.685 53.358 114.427 54.5398 113.91 55.5511C113.398 56.5625 112.674 57.3494 111.737 57.9119C110.799 58.4744 109.691 58.7557 108.413 58.7557ZM108.43 56.2841C109.123 56.2841 109.702 56.0937 110.168 55.7131C110.634 55.3267 110.981 54.8097 111.208 54.1619C111.441 53.5142 111.558 52.7926 111.558 51.9972C111.558 51.196 111.441 50.4716 111.208 49.8239C110.981 49.1705 110.634 48.6506 110.168 48.2642C109.702 47.8778 109.123 47.6847 108.43 47.6847C107.719 47.6847 107.129 47.8778 106.657 48.2642C106.191 48.6506 105.842 49.1705 105.609 49.8239C105.381 50.4716 105.268 51.196 105.268 51.9972C105.268 52.7926 105.381 53.5142 105.609 54.1619C105.842 54.8097 106.191 55.3267 106.657 55.7131C107.129 56.0937 107.719 56.2841 108.43 56.2841ZM123.014 58.7557C121.736 58.7557 120.628 58.4744 119.69 57.9119C118.753 57.3494 118.026 56.5625 117.509 55.5511C116.997 54.5398 116.741 53.358 116.741 52.0057C116.741 50.6534 116.997 49.4687 117.509 48.4517C118.026 47.4347 118.753 46.6449 119.69 46.0824C120.628 45.5199 121.736 45.2386 123.014 45.2386C124.293 45.2386 125.401 45.5199 126.338 46.0824C127.276 46.6449 128 47.4347 128.511 48.4517C129.028 49.4687 129.287 50.6534 129.287 52.0057C129.287 53.358 129.028 54.5398 128.511 55.5511C128 56.5625 127.276 57.3494 126.338 57.9119C125.401 58.4744 124.293 58.7557 123.014 58.7557ZM123.031 56.2841C123.724 56.2841 124.304 56.0937 124.77 55.7131C125.236 55.3267 125.582 54.8097 125.81 54.1619C126.043 53.5142 126.159 52.7926 126.159 51.9972C126.159 51.196 126.043 50.4716 125.81 49.8239C125.582 49.1705 125.236 48.6506 124.77 48.2642C124.304 47.8778 123.724 47.6847 123.031 47.6847C122.321 47.6847 121.73 47.8778 121.259 48.2642C120.793 48.6506 120.443 49.1705 120.21 49.8239C119.983 50.4716 119.869 51.196 119.869 51.9972C119.869 52.7926 119.983 53.5142 120.21 54.1619C120.443 54.8097 120.793 55.3267 121.259 55.7131C121.73 56.0937 122.321 56.2841 123.031 56.2841ZM137.599 63.6818C136.491 63.6818 135.539 63.5313 134.744 63.2301C133.948 62.9347 133.309 62.5369 132.826 62.0369C132.343 61.5369 132.008 60.983 131.82 60.375L134.599 59.7017C134.724 59.9574 134.906 60.2102 135.144 60.4602C135.383 60.7159 135.704 60.9261 136.107 61.0909C136.516 61.2614 137.031 61.3466 137.65 61.3466C138.525 61.3466 139.249 61.1335 139.823 60.7074C140.397 60.2869 140.684 59.5938 140.684 58.6278V56.1477H140.531C140.371 56.4659 140.138 56.7926 139.832 57.1278C139.531 57.4631 139.13 57.7443 138.63 57.9716C138.136 58.1989 137.513 58.3125 136.763 58.3125C135.758 58.3125 134.846 58.0767 134.028 57.6051C133.215 57.1278 132.567 56.4176 132.085 55.4744C131.607 54.5256 131.369 53.3381 131.369 51.9119C131.369 50.4744 131.607 49.2614 132.085 48.2727C132.567 47.2784 133.218 46.5256 134.036 46.0142C134.854 45.4972 135.766 45.2386 136.772 45.2386C137.539 45.2386 138.17 45.3693 138.664 45.6307C139.164 45.8864 139.562 46.196 139.857 46.5597C140.153 46.9176 140.377 47.2557 140.531 47.5739H140.701V45.4091H143.744V58.7131C143.744 59.8324 143.477 60.7585 142.942 61.4915C142.408 62.2244 141.678 62.7727 140.752 63.1364C139.826 63.5 138.775 63.6818 137.599 63.6818ZM137.624 55.892C138.278 55.892 138.835 55.733 139.295 55.4148C139.755 55.0966 140.104 54.6392 140.343 54.0426C140.582 53.446 140.701 52.7301 140.701 51.8949C140.701 51.071 140.582 50.3494 140.343 49.7301C140.11 49.1108 139.763 48.6307 139.303 48.2898C138.849 47.9432 138.289 47.7699 137.624 47.7699C136.937 47.7699 136.363 47.9489 135.903 48.3068C135.442 48.6648 135.096 49.1562 134.863 49.7812C134.63 50.4006 134.513 51.1051 134.513 51.8949C134.513 52.696 134.63 53.3977 134.863 54C135.102 54.5966 135.451 55.0625 135.911 55.3977C136.377 55.7273 136.948 55.892 137.624 55.892ZM149.991 41.0455V58.5H146.906V41.0455H149.991ZM158.959 58.7557C157.646 58.7557 156.513 58.483 155.558 57.9375C154.609 57.3864 153.879 56.608 153.368 55.6023C152.857 54.5909 152.601 53.4006 152.601 52.0312C152.601 50.6847 152.857 49.5028 153.368 48.4858C153.885 47.4631 154.607 46.6676 155.533 46.0994C156.459 45.5256 157.547 45.2386 158.797 45.2386C159.604 45.2386 160.365 45.3693 161.081 45.6307C161.803 45.8864 162.439 46.2841 162.99 46.8239C163.547 47.3636 163.984 48.0511 164.303 48.8864C164.621 49.7159 164.78 50.7045 164.78 51.8523V52.7983H154.05V50.7188H161.822C161.817 50.1278 161.689 49.6023 161.439 49.142C161.189 48.6761 160.839 48.3097 160.391 48.0426C159.947 47.7756 159.43 47.642 158.839 47.642C158.209 47.642 157.655 47.7955 157.178 48.1023C156.7 48.4034 156.328 48.8011 156.061 49.2955C155.8 49.7841 155.666 50.321 155.661 50.9062V52.7216C155.661 53.483 155.8 54.1364 156.078 54.6818C156.357 55.2216 156.746 55.6364 157.246 55.9261C157.746 56.2102 158.331 56.3523 159.001 56.3523C159.45 56.3523 159.857 56.2898 160.22 56.1648C160.584 56.0341 160.899 55.8438 161.166 55.5938C161.433 55.3438 161.635 55.0341 161.771 54.6648L164.652 54.9886C164.47 55.75 164.124 56.4148 163.612 56.983C163.107 57.5455 162.459 57.983 161.669 58.2955C160.879 58.6023 159.976 58.7557 158.959 58.7557ZM173.479 58.5V41.0455H180.025C181.366 41.0455 182.491 41.2955 183.4 41.7955C184.315 42.2955 185.005 42.983 185.471 43.858C185.942 44.7273 186.178 45.7159 186.178 46.8239C186.178 47.9432 185.942 48.9375 185.471 49.8068C184.999 50.6761 184.303 51.3608 183.383 51.8608C182.462 52.3551 181.329 52.6023 179.982 52.6023H175.644V50.0028H179.556C180.34 50.0028 180.982 49.8665 181.482 49.5938C181.982 49.321 182.352 48.946 182.59 48.4688C182.835 47.9915 182.957 47.4432 182.957 46.8239C182.957 46.2045 182.835 45.6591 182.59 45.1875C182.352 44.7159 181.979 44.3494 181.474 44.0881C180.974 43.821 180.329 43.6875 179.539 43.6875H176.641V58.5H173.479ZM191.874 41.0455V58.5H188.788V41.0455H191.874ZM198.813 58.7642C197.984 58.7642 197.237 58.6165 196.572 58.321C195.913 58.0199 195.39 57.5767 195.004 56.9915C194.623 56.4062 194.433 55.6847 194.433 54.8267C194.433 54.0881 194.569 53.4773 194.842 52.9943C195.114 52.5114 195.487 52.125 195.958 51.8352C196.43 51.5455 196.961 51.3267 197.552 51.179C198.148 51.0256 198.765 50.9148 199.401 50.8466C200.168 50.767 200.79 50.696 201.268 50.6335C201.745 50.5653 202.092 50.4631 202.308 50.3267C202.529 50.1847 202.64 49.9659 202.64 49.6705V49.6193C202.64 48.9773 202.45 48.4801 202.069 48.1278C201.688 47.7756 201.14 47.5994 200.424 47.5994C199.668 47.5994 199.069 47.7642 198.626 48.0938C198.188 48.4233 197.893 48.8125 197.739 49.2614L194.859 48.8523C195.086 48.0568 195.461 47.392 195.984 46.858C196.506 46.3182 197.146 45.9148 197.901 45.6477C198.657 45.375 199.492 45.2386 200.407 45.2386C201.038 45.2386 201.665 45.3125 202.29 45.4602C202.915 45.608 203.487 45.8523 204.004 46.1932C204.521 46.5284 204.935 46.9858 205.248 47.5653C205.566 48.1449 205.725 48.8693 205.725 49.7386V58.5H202.759V56.7017H202.657C202.469 57.0653 202.205 57.4062 201.864 57.7244C201.529 58.0369 201.106 58.2898 200.594 58.483C200.089 58.6705 199.495 58.7642 198.813 58.7642ZM199.614 56.4972C200.234 56.4972 200.771 56.375 201.225 56.1307C201.68 55.8807 202.029 55.5511 202.273 55.142C202.523 54.733 202.648 54.2869 202.648 53.804V52.2614C202.552 52.3409 202.387 52.4148 202.154 52.483C201.927 52.5511 201.671 52.6108 201.387 52.6619C201.103 52.7131 200.822 52.7585 200.543 52.7983C200.265 52.8381 200.023 52.8722 199.819 52.9006C199.359 52.9631 198.947 53.0653 198.583 53.2074C198.219 53.3494 197.933 53.5483 197.722 53.804C197.512 54.054 197.407 54.3778 197.407 54.7756C197.407 55.3438 197.614 55.7727 198.029 56.0625C198.444 56.3523 198.972 56.4972 199.614 56.4972ZM210.276 63.4091C209.856 63.4091 209.467 63.375 209.109 63.3068C208.756 63.2443 208.475 63.1705 208.265 63.0852L208.981 60.6818C209.43 60.8125 209.83 60.875 210.183 60.8693C210.535 60.8636 210.844 60.7528 211.112 60.5369C211.384 60.3267 211.614 59.9744 211.802 59.4801L212.066 58.7727L207.319 45.4091H210.592L213.609 55.2955H213.745L216.771 45.4091H220.052L214.81 60.0852C214.566 60.7784 214.242 61.3722 213.839 61.8665C213.435 62.3665 212.941 62.7472 212.356 63.0085C211.776 63.2756 211.083 63.4091 210.276 63.4091Z" fill="white"/>
</svg>
