<svg width="55" height="54" viewBox="0 0 55 54" fill="none" xmlns="http://www.w3.org/2000/svg">
<path d="M54.5 27C54.5 30.6255 53.7877 34.083 52.4906 37.2394C49.3577 44.8784 42.8198 50.7683 34.7647 53.0097C34.2145 53.166 33.6528 53.305 33.0853 53.4209C32.7205 53.5019 32.3499 53.5714 31.9792 53.6293C31.7244 53.6757 31.4697 53.7104 31.2091 53.7452C30.6068 53.8321 29.9988 53.8958 29.3849 53.9363C29.0838 53.9537 28.8116 53.971 28.5337 53.9768C28.192 53.9942 27.8503 54 27.5029 54C27.2655 54 27.028 54 26.7906 53.9884C26.5879 53.9884 26.3853 53.9768 26.1826 53.971C25.4471 53.9363 24.7117 53.8668 23.9878 53.7741C23.8257 53.751 23.6577 53.7278 23.4956 53.7046C23.2813 53.6699 23.0729 53.6351 22.8644 53.6004C22.0768 53.4614 21.3066 53.2934 20.5422 53.0907C19.5115 52.8185 18.4981 52.4826 17.5194 52.0888C15.2552 51.1911 13.1415 49.9923 11.2247 48.5444C8.6941 46.6332 6.51672 44.2876 4.79683 41.6178C4.44358 41.0618 4.10772 40.5 3.78922 39.9209C1.69292 36.0811 0.5 31.6795 0.5 27C0.5 12.0869 12.5914 0 27.5029 0C42.4144 0 54.5 12.0869 54.5 27Z" fill="#EBF0FF"/>
<path d="M34.7648 53.0095C34.2147 53.1658 33.6529 53.3048 33.0854 53.4207C32.7206 53.5018 32.35 53.5713 31.9794 53.6292C31.7246 53.6755 31.4698 53.7103 31.2092 53.745C30.6069 53.8319 29.9989 53.8956 29.3851 53.9361C29.0839 53.9535 28.8118 53.9709 28.5338 53.9767C28.1921 53.994 27.8505 53.9998 27.503 53.9998C27.2656 53.9998 27.0282 53.9998 26.7907 53.9882C26.5881 53.9882 26.3854 53.9767 26.1827 53.9709C25.4473 53.9361 24.7118 53.8666 23.988 53.774C23.8258 53.7508 23.6579 53.7276 23.4957 53.7045C23.2815 53.6697 23.073 53.635 22.8645 53.6002C22.077 53.4612 21.3068 53.2933 20.5424 53.0906C19.5116 52.8184 18.4982 52.4825 17.5195 52.0886L19.4363 32.7855L22.9282 31.9631L29.8889 30.3184L31.852 30.9033L34.0467 31.552L34.7648 53.0095Z" fill="#FFB700"/>
<path d="M21.0165 13.2104C21.0165 13.2104 17.0498 8.32242 18.1211 7.67377C19.1924 7.03091 20.2058 8.01547 20.2058 8.01547C20.2058 8.01547 28.2899 6.74133 31.2375 7.5811C34.185 8.42087 36.1597 13.2452 36.1597 13.2452C36.1597 13.2452 37.6364 13.1062 38.2618 15.1274C38.8872 17.1487 34.5383 27.0695 31.7528 26.5483C28.9732 26.027 21.005 13.2104 21.005 13.2104H21.0165Z" fill="#703400"/>
<path d="M31.7358 24.9497L31.8748 31.7026C31.8748 31.7026 30.6992 33.6659 26.7556 34.0713C23.8196 34.3725 22.7715 33.7238 22.7715 33.7238L23.1131 30.2953L23.449 26.9536L30.5486 25.2393L31.7416 24.9497H31.7358Z" fill="#FD8753"/>
<path d="M30.5429 25.2394C30.5313 25.4247 30.4618 25.6448 30.3576 25.8938C28.9157 29.2992 24.7984 30.1042 23.1074 30.2954L23.4433 26.9537L30.5429 25.2394Z" fill="#323232"/>
<path d="M21.6247 11.5946C21.6247 11.5946 18.2544 20.1312 19.7427 24.805C21.2367 29.4787 25.5104 28.5811 28.0526 27.5791C30.5948 26.5772 31.7298 24.9556 31.7298 24.9556C31.7298 24.9556 34.162 25.6853 35.6908 23.3919C37.2196 21.0984 36.1367 18.5675 34.7411 18.0289C33.3455 17.4903 31.753 18.5386 31.753 18.5386L32.9459 16.0482C32.9459 16.0482 27.1203 3.82815 21.6247 11.6004V11.5946Z" fill="#FD8753"/>
<path d="M21.6249 11.5947C21.6249 11.5947 24.254 10.5348 25.3716 11.4615C26.4951 12.3881 27.8154 20.2124 31.7532 18.5329C35.691 16.8534 33.6526 11.8379 33.6526 11.8379C33.6526 11.8379 23.7444 3.35337 21.6191 11.5947H21.6249Z" fill="#703400"/>
<path d="M23.1077 30.2954C23.1077 30.2954 23.1077 30.3649 23.0845 30.4981L23.0556 30.7761C23.0556 30.8282 23.044 30.8804 23.0382 30.9383C23.0092 31.2047 22.9687 31.5464 22.9282 31.9634C22.5344 35.5367 21.5673 44.3051 20.5423 53.0908C19.5115 52.8186 18.4981 52.4827 17.5195 52.0888C15.2552 51.1912 13.1415 49.9923 11.2248 48.5444C8.69414 46.6332 6.51677 44.2877 4.79688 41.6178C7.23484 37.946 10.9873 34.7491 13.2689 33.4402C18.6197 30.3649 22.8992 30.2954 23.1019 30.2954H23.1077Z" fill="#E2209E"/>
<path d="M25.9052 34.4133C24.1621 34.4133 22.8013 34.0311 22.6854 33.9963C22.5349 33.95 22.4422 33.7936 22.4886 33.6373C22.5349 33.4809 22.6912 33.394 22.8476 33.4403C22.9055 33.4577 28.6269 35.062 31.6497 31.5118C31.754 31.3901 31.9393 31.3728 32.0609 31.477C32.1825 31.5813 32.1999 31.7608 32.0956 31.8824C30.3584 33.921 27.8857 34.4075 25.911 34.4075L25.9052 34.4133Z" fill="#703400"/>
<path d="M52.4899 37.2393C49.357 44.8782 42.8191 50.7682 34.764 53.0095C34.2138 53.1659 33.6521 53.3049 33.0846 53.4207C32.2623 44.5192 31.8164 29.1891 31.8164 29.1891C31.8164 29.1891 43.5256 28.2566 52.4899 37.2393Z" fill="#E2209E"/>
<path d="M32.0598 22.2974C31.9903 22.2974 31.915 22.2684 31.8571 22.2163C31.7413 22.1063 31.7413 21.9209 31.8513 21.8051L33.9766 19.6043C34.0866 19.4885 34.2719 19.4885 34.3877 19.5985C34.5036 19.7086 34.5036 19.8939 34.3935 20.0097L32.2683 22.2105C32.2104 22.2684 32.1351 22.2974 32.0598 22.2974Z" fill="#323232"/>
<path d="M34.186 22.274C34.1165 22.274 34.047 22.2508 33.9891 22.1987L32.9062 21.2026C32.7904 21.0925 32.7788 20.913 32.8889 20.7914C32.9989 20.6755 33.1784 20.664 33.3 20.774L34.3829 21.7701C34.4987 21.8802 34.5103 22.0597 34.4003 22.1813C34.3424 22.245 34.2671 22.274 34.186 22.274Z" fill="#323232"/>
<path d="M21.0692 15.4287C21.0055 15.4287 20.9476 15.4114 20.8955 15.3708C20.7681 15.2724 20.745 15.0986 20.8376 14.9712C20.8608 14.9422 21.4109 14.2183 22.8065 14.421C22.9629 14.4442 23.0729 14.589 23.0497 14.7511C23.0266 14.9075 22.876 15.0175 22.7196 14.9944C21.6889 14.8438 21.3125 15.3013 21.2951 15.3187C21.2372 15.3882 21.1503 15.4287 21.0635 15.4287H21.0692Z" fill="#323232"/>
<path d="M27.4278 15.5096C27.3641 15.5096 27.2946 15.4864 27.2425 15.4401C26.507 14.8262 25.6674 15.0405 25.6268 15.052C25.4763 15.0926 25.3141 14.9999 25.2736 14.8493C25.2331 14.693 25.3199 14.5366 25.4763 14.4961C25.5226 14.4845 26.6402 14.1891 27.6131 14.9999C27.7347 15.1042 27.7521 15.2837 27.6479 15.4053C27.5899 15.4748 27.5089 15.5096 27.4278 15.5096Z" fill="#323232"/>
<path d="M21.3528 18.7935C21.1675 18.7819 21.0517 18.6371 21.0633 18.4807L21.1907 16.9112C21.2023 16.7548 21.3355 16.6332 21.5034 16.6448C21.6597 16.6564 21.7814 16.7954 21.7698 16.9575L21.6424 18.527C21.6308 18.6776 21.5034 18.7935 21.3528 18.7935Z" fill="#323232"/>
<path d="M25.9974 18.9847C25.8121 18.9731 25.6962 18.8283 25.7078 18.6719L25.8352 17.1024C25.8468 16.9402 25.98 16.8244 26.1479 16.836C26.3043 16.8476 26.4259 16.9866 26.4143 17.1487L26.2869 18.7182C26.2753 18.8688 26.1479 18.9847 25.9974 18.9847Z" fill="#323232"/>
<path d="M22.4769 22.5406C22.3668 22.5406 22.2626 22.4769 22.2105 22.3669C21.226 20.1603 22.7027 18.3823 22.7664 18.3071C22.8706 18.1854 23.0501 18.1681 23.1718 18.2723C23.2934 18.3766 23.3107 18.5561 23.2065 18.6777C23.1544 18.7414 21.9035 20.2588 22.7374 22.1237C22.8011 22.2684 22.7374 22.4422 22.5927 22.5059C22.5521 22.5233 22.5116 22.5291 22.4769 22.5291V22.5406Z" fill="#323232"/>
<path d="M24.3188 23.9537C24.1567 23.9537 24.0293 23.8263 24.0293 23.6641C24.0293 23.5019 24.1567 23.3745 24.3188 23.3745C24.3594 23.3745 25.338 23.3572 25.6913 22.5174C25.755 22.3668 25.9229 22.2973 26.0677 22.361C26.2125 22.4247 26.2819 22.5927 26.224 22.7375C25.7202 23.9363 24.371 23.9537 24.3188 23.9537Z" fill="#323232"/>
</svg>
