<svg xmlns="http://www.w3.org/2000/svg" width="55" height="54" viewBox="0 0 55 54" fill="none">
  <path d="M54.5 27.0029C54.5 31.5661 53.3708 35.8629 51.3671 39.6328C51.2166 39.9223 51.0544 40.2061 50.8923 40.4898C46.2306 48.5681 37.498 54 27.4971 54C24.7522 54 22.1116 53.5888 19.6215 52.8302C19.1119 52.6738 18.6023 52.5001 18.1043 52.3148C16.7434 51.811 15.4347 51.203 14.1897 50.4849C14.0796 50.427 13.9754 50.3691 13.8712 50.3054C11.19 48.7418 8.80412 46.7266 6.82943 44.3639C6.62675 44.1323 6.43566 43.8949 6.24457 43.6517C2.64264 39.0653 0.5 33.286 0.5 27.0029C0.5 12.0914 12.5914 0 27.4971 0C42.4028 0 54.5 12.0914 54.5 27.0029Z" fill="#EBF0FF"/>
  <path d="M37.2197 43.0782L19.6212 52.83C19.1116 52.6737 18.602 52.4999 18.104 52.3146C16.7431 51.8108 15.4344 51.2028 14.1893 50.4847C14.0793 50.4268 13.9751 50.3689 13.8708 50.3052C11.1896 48.7417 8.80379 46.7264 6.8291 44.3638C8.97173 40.0901 13.6739 33.3437 22.7077 31.1432C24.6245 30.6799 26.3212 30.7262 27.7979 31.1316C34.8802 33.0657 37.2197 43.0782 37.2197 43.0782Z" fill="#1B0040"/>
  <path d="M50.8921 40.4899C46.2304 48.5682 37.4978 54 27.4969 54C24.752 54 22.1114 53.5889 19.6213 52.8303C19.1117 52.6739 18.6021 52.5002 18.1041 52.3149C16.7432 51.8111 15.4345 51.203 14.1895 50.485C14.8554 43.0379 15.5329 36.9227 16.0541 35.7298C17.0096 33.5061 23.4317 31.9483 27.798 31.1318C30.1433 30.6975 31.8922 30.4717 31.8922 30.4717C31.8922 30.4717 40.509 30.8191 47.5102 36.6621C48.6452 37.6118 49.786 38.9264 50.8921 40.4899Z" fill="#1B0040"/>
  <path d="M21.6021 10.7715C21.6021 10.7715 18.7124 14.0375 20.2991 17.6395C21.8858 21.2414 23.5883 11.0958 23.5883 11.0958L21.5963 10.7715H21.6021Z" fill="#703400"/>
  <path d="M31.3129 25.4512L31.4229 31.9312C31.4229 31.9312 30.2879 33.8132 26.5007 34.1838C23.6805 34.4618 22.6787 33.8422 22.6787 33.8422L23.0146 30.5529L23.3504 27.3448L30.1721 25.7233L31.3187 25.4512H31.3129Z" fill="#FD8753"/>
  <path d="M30.1668 25.7236C30.1553 25.9031 31.2092 26.459 31.1108 26.6964C29.7152 29.9567 24.5149 31.5955 22.8877 31.7692L23.3452 27.3392L30.1668 25.7178V25.7236Z" fill="#323232"/>
  <path d="M22.8294 11.095C21.9376 11.8188 21.3179 12.8148 20.9473 13.9035C20.1019 16.4052 18.3936 22.2424 19.5112 25.827C20.9647 30.477 25.1631 29.6084 27.6532 28.624C30.149 27.6395 31.2667 26.0296 31.2667 26.0296C31.2667 26.0296 33.6525 26.7651 35.1524 24.4951C36.658 22.225 35.5983 19.7002 34.2316 19.1559C32.865 18.6115 31.2956 19.6481 31.2956 19.6481L32.4712 17.1812C32.4712 17.1812 27.7458 7.08189 22.8236 11.095H22.8294Z" fill="#FD8753"/>
  <path d="M31.6489 22.8164C31.562 22.8164 31.4752 22.7759 31.4172 22.7006C31.3188 22.5732 31.3477 22.3879 31.4751 22.2952L33.8436 20.529C33.971 20.4364 34.1505 20.4595 34.249 20.5869C34.3416 20.7143 34.3185 20.8996 34.1911 20.9923L31.8226 22.7585C31.7705 22.799 31.7126 22.8164 31.6489 22.8164Z" fill="#323232"/>
  <path d="M34.3131 22.7352C34.3131 22.7352 34.2668 22.7352 34.2436 22.7294L32.3153 22.2662C32.1589 22.2314 32.0663 22.0751 32.101 21.9187C32.1358 21.7624 32.2921 21.6639 32.4485 21.7044L34.3826 22.1677C34.539 22.2025 34.6316 22.3588 34.5969 22.5152C34.5679 22.6484 34.4463 22.7352 34.3131 22.7352Z" fill="#323232"/>
  <path d="M20.9242 18.6638C20.9242 18.6638 20.8779 18.6638 20.8547 18.6522C20.6983 18.6116 20.6057 18.4553 20.6462 18.2989L21.0284 16.8049C21.069 16.6485 21.2253 16.5559 21.3817 16.5964C21.538 16.637 21.6307 16.7933 21.5901 16.9497L21.2079 18.4437C21.1732 18.5769 21.0574 18.6638 20.93 18.6638H20.9242Z" fill="#323232"/>
  <path d="M25.0306 18.8835C25.0306 18.8835 24.9843 18.8835 24.9611 18.8719C24.8048 18.8314 24.7121 18.675 24.7527 18.5187L25.1349 17.0246C25.1754 16.8683 25.3318 16.7756 25.4881 16.8162C25.6445 16.8567 25.7371 17.0131 25.6966 17.1694L25.3144 18.6634C25.2796 18.7966 25.1638 18.8835 25.0364 18.8835H25.0306Z" fill="#323232"/>
  <path d="M20.6868 15.4035C20.542 15.4035 20.4146 15.2935 20.3972 15.143C20.3799 14.9866 20.4957 14.8418 20.652 14.8245L21.8797 14.6913C22.0361 14.6797 22.1808 14.7897 22.1982 14.9461C22.2156 15.1024 22.0997 15.2472 21.9434 15.2646L20.7157 15.3978C20.7157 15.3978 20.6926 15.3978 20.6868 15.3978V15.4035Z" fill="#323232"/>
  <path d="M26.264 16.3937C26.2293 16.3937 26.1888 16.3879 26.154 16.3705L24.4805 15.6698C24.3357 15.6061 24.2662 15.4382 24.3241 15.2934C24.3878 15.1487 24.5557 15.0734 24.7005 15.1371L26.3741 15.8378C26.5188 15.9015 26.5883 16.0694 26.5304 16.2142C26.4841 16.3242 26.3741 16.3937 26.264 16.3937Z" fill="#323232"/>
  <path d="M31.3074 19.6486C31.3074 19.6486 30.6356 22.3471 30.1202 22.0171C29.6049 21.687 29.1184 17.8013 29.5064 16.0582C29.8944 14.3152 30.1724 13.4408 30.1724 13.4408C30.1724 13.4408 23.0901 12.8096 21.2255 11.1302C19.3608 9.44506 23.2986 8.36215 27.3348 9.12655C31.3653 9.89095 32.9578 11.4024 32.9578 11.4024C32.9578 11.4024 35.4826 11.026 36.4265 12.5663C37.3704 14.1067 35.222 19.9613 35.222 19.9613C35.222 19.9613 34.585 18.4904 31.3074 19.6428V19.6486Z" fill="#703400"/>
  <path d="M17.8027 22.4336C17.8027 22.4336 19.7832 20.2446 20.785 20.5689C21.7927 20.899 22.1575 22.3699 22.1575 22.3699C22.1575 22.3699 23.3504 20.7137 24.6707 21.1827C25.991 21.6518 28.817 21.8197 28.846 22.2772C28.8749 22.7347 28.0584 22.8968 28.0584 22.8968C28.0584 22.8968 21.4047 23.667 17.8027 22.4336Z" fill="#703400"/>
  <path d="M31.3073 19.6484C31.3073 19.6484 31.1914 24.0205 31.2725 26.03C31.3594 28.0336 25.7828 31.1607 21.9318 29.435C18.0809 27.7093 19.1348 22.6597 19.1348 22.6597L22.5688 22.9782C22.5688 22.9782 23.3622 22.5323 24.2597 22.347C25.1573 22.1617 26.356 22.6539 26.356 22.6539L31.3073 19.6542V19.6484Z" fill="#703400"/>
  <path d="M23.1077 23.9916C22.9629 23.9916 22.8355 23.8816 22.8181 23.731C22.8008 23.5747 22.9166 23.4299 23.0729 23.4125C23.0845 23.4125 24.2369 23.2793 24.6596 22.4339C24.7291 22.2891 24.9029 22.2312 25.0476 22.3065C25.1924 22.376 25.2503 22.5497 25.175 22.6945C24.6133 23.8237 23.1888 23.98 23.1308 23.9858C23.1193 23.9858 23.1077 23.9858 23.1019 23.9858L23.1077 23.9916Z" fill="#323232"/>
  <path d="M22.0417 21.9069C21.9375 21.9069 21.8333 21.849 21.7811 21.7448C20.8199 19.8222 22.2039 17.8012 22.2618 17.7201C22.3544 17.5869 22.534 17.558 22.6671 17.6506C22.8003 17.7433 22.8293 17.9228 22.7366 18.056C22.7251 18.0734 21.4916 19.8801 22.3023 21.49C22.3718 21.6347 22.3139 21.8085 22.1749 21.878C22.1344 21.9011 22.0881 21.9069 22.0475 21.9069H22.0417Z" fill="#323232"/>
  <path d="M24.7293 34.4958C22.8299 34.4958 21.3649 34.1252 21.2317 34.0904C21.0753 34.0499 20.9826 33.8935 21.0232 33.7372C21.0637 33.5808 21.2201 33.4882 21.3764 33.5287C21.4459 33.5461 28.1054 35.2196 31.4294 31.276C31.5336 31.1544 31.719 31.1371 31.8348 31.2413C31.9564 31.3455 31.9738 31.5251 31.8695 31.6467C29.9238 33.9514 27.011 34.49 24.7236 34.49L24.7293 34.4958Z" fill="#FFB700"/>
</svg>