<svg width="82" height="40" viewBox="0 0 82 40" fill="none" xmlns="http://www.w3.org/2000/svg">
<path d="M47.0438 40C45.2981 40 43.6844 39.7305 42.2027 39.1916C40.7412 38.6526 39.4726 37.894 38.3968 36.9159C37.321 35.9178 36.4786 34.7501 35.8696 33.4127C35.281 32.0752 34.9867 30.618 34.9867 29.0411C34.9867 27.4441 35.281 25.9869 35.8696 24.6695C36.4786 23.332 37.321 22.1743 38.3968 21.1961C39.4726 20.1981 40.7412 19.4295 42.2027 18.8906C43.6844 18.3516 45.288 18.0821 47.0133 18.0821C48.759 18.0821 50.3625 18.3516 51.824 18.8906C53.2855 19.4295 54.5541 20.1981 55.6299 21.1961C56.7057 22.1743 57.5379 23.332 58.1266 24.6695C58.7355 25.9869 59.04 27.4441 59.04 29.0411C59.04 30.618 58.7355 32.0752 58.1266 33.4127C57.5379 34.7501 56.7057 35.9178 55.6299 36.9159C55.4365 37.0917 55.2369 37.2605 55.0311 37.4221C54.4182 37.9033 53.7501 38.3217 53.0267 38.6772C52.6414 38.8665 52.2406 39.0379 51.824 39.1916C50.3625 39.7305 48.7691 40 47.0438 40ZM47.0133 34.281C47.6832 34.281 48.3023 34.1612 48.8706 33.9217C49.4593 33.6821 49.9667 33.3428 50.393 32.9036C50.8395 32.4445 51.1846 31.8956 51.4282 31.2568C51.6718 30.5981 51.7936 29.8595 51.7936 29.0411C51.7936 28.2226 51.6718 27.494 51.4282 26.8553C51.1846 26.1965 50.8395 25.6476 50.393 25.2084C49.9667 24.7493 49.4593 24.4 48.8706 24.1604C48.3023 23.9209 47.6832 23.8011 47.0133 23.8011C46.3435 23.8011 45.7143 23.9209 45.1256 24.1604C44.5573 24.4 44.0498 24.7493 43.6032 25.2084C43.177 25.6476 42.8421 26.1965 42.5985 26.8553C42.3549 27.494 42.2331 28.2226 42.2331 29.0411C42.2331 29.8595 42.3549 30.5981 42.5985 31.2568C42.8421 31.8956 43.177 32.4445 43.6032 32.9036C44.0498 33.3428 44.5573 33.6821 45.1256 33.9217C45.7143 34.1612 46.3435 34.281 47.0133 34.281Z" fill="white"/>
<path d="M53.5733 18.6301C53.5733 18.3274 53.8181 18.0821 54.12 18.0821H58.4933C58.7953 18.0821 59.04 18.3274 59.04 18.6301V39.4521C59.04 39.7547 58.7953 40 58.4933 40H54.12C53.8181 40 53.5733 39.7547 53.5733 39.4521V18.6301Z" fill="white"/>
<path d="M76.2217 40C76.0405 40 75.8711 39.91 75.7693 39.7597L68.8404 29.5211C68.5381 29.0743 67.8413 29.2888 67.8413 29.8287V39.4521C67.8413 39.7547 67.5966 40 67.2947 40H62.32C62.0181 40 61.7733 39.7547 61.7733 39.4521V18.6301C61.7733 18.3274 62.0181 18.0821 62.32 18.0821H67.5516C67.7328 18.0821 67.9023 18.1721 68.004 18.3225L74.9329 28.561C75.2353 29.0078 75.932 28.7933 75.932 28.2535V18.6301C75.932 18.3274 76.1768 18.0821 76.4787 18.0821H81.4533C81.7553 18.0821 82 18.3274 82 18.6301V39.4521C82 39.7547 81.7553 40 81.4533 40H76.2217Z" fill="white"/>
<path d="M12.0571 40C10.3115 40 8.69777 39.7305 7.216 39.1916C5.75453 38.6526 4.4859 37.894 3.41009 36.9159C2.33429 35.9178 1.49192 34.7501 0.88297 33.4127C0.294324 32.0752 0 30.618 0 29.0411C0 27.4441 0.294324 25.9869 0.88297 24.6695C1.49192 23.332 2.33429 22.1743 3.41009 21.1961C4.4859 20.1981 5.75453 19.4295 7.216 18.8906C8.69777 18.3516 10.3013 18.0821 12.0267 18.0821C13.7723 18.0821 15.3759 18.3516 16.8373 18.8906C18.2988 19.4295 19.5674 20.1981 20.6432 21.1961C21.719 22.1743 22.5513 23.332 23.1399 24.6695C23.7489 25.9869 24.0533 27.4441 24.0533 29.0411C24.0533 30.618 23.7489 32.0752 23.1399 33.4127C22.5513 34.7501 21.719 35.9178 20.6432 36.9159C19.5674 37.894 18.2988 38.6526 16.8373 39.1916C15.3759 39.7305 13.7825 40 12.0571 40ZM12.0267 34.281C12.6965 34.281 13.3156 34.1612 13.8839 33.9217C14.4726 33.6821 14.98 33.3428 15.4063 32.9036C15.8529 32.4445 16.1979 31.8956 16.4415 31.2568C16.6851 30.5981 16.8069 29.8595 16.8069 29.0411C16.8069 28.2226 16.6851 27.494 16.4415 26.8553C16.1979 26.1965 15.8529 25.6476 15.4063 25.2084C14.98 24.7493 14.4726 24.4 13.8839 24.1604C13.3156 23.9209 12.6965 23.8011 12.0267 23.8011C11.3568 23.8011 10.7276 23.9209 10.1389 24.1604C9.57059 24.4 9.06313 24.7493 8.61657 25.2084C8.19031 25.6476 7.85539 26.1965 7.61181 26.8553C7.36824 27.494 7.24645 28.2226 7.24645 29.0411C7.24645 29.8595 7.36824 30.5981 7.61181 31.2568C7.85539 31.8956 8.19031 32.4445 8.61657 32.9036C9.06313 33.3428 9.57059 33.6821 10.1389 33.9217C10.7276 34.1612 11.3568 34.281 12.0267 34.281Z" fill="white"/>
<path fill-rule="evenodd" clip-rule="evenodd" d="M12.0267 2.19179C12.0267 0.981297 13.0057 0 14.2133 0C21.2901 0 25.1697 1.27419 27.5591 2.81386C28.439 3.3808 29.0686 3.95565 29.52 4.40726C29.9714 3.95566 30.6011 3.38081 31.4809 2.81389C33.8703 1.27423 37.7499 5.8527e-05 44.8267 5.8527e-05C46.0343 5.8527e-05 47.0133 0.981355 47.0133 2.19185V12.6032C47.0133 13.8137 46.0343 14.795 44.8267 14.795C41.7257 14.795 39.537 15.4447 37.9577 16.3195C36.3774 17.1949 35.2879 18.3619 34.4827 19.5724C33.6784 20.7818 33.1487 21.9179 32.7296 25.2752C32.4029 27.8927 32.5518 31.0617 32.6814 33.8197C32.7769 35.852 32.8619 37.6611 32.7385 38.862C32.6409 39.2413 31.8607 40 29.52 40C27.1793 40 26.3991 39.2413 26.3016 38.862C26.1781 37.6611 26.2631 35.8519 26.3586 33.8196C26.4882 31.0616 26.6371 27.8926 26.3104 25.2752C25.9667 21.9179 25.3616 20.7818 24.5573 19.5724C23.7521 18.3618 22.6626 17.1948 21.0823 16.3195C19.503 15.4447 17.3143 14.795 14.2133 14.795C13.0057 14.795 12.0267 13.8137 12.0267 12.6032V2.19179ZM30.7208 19.6014C30.2553 20.1671 29.9419 20.5479 29.52 20.5479C29.0981 20.5479 28.7847 20.1671 28.3192 19.6014C26.9753 17.9684 24.3638 12.6032 14.2133 12.6032V2.19179C24.3638 2.19179 26.9753 4.91215 28.3192 6.31196C28.7847 6.79687 29.0981 7.12331 29.52 7.12331C29.9419 7.12331 30.2553 6.79687 30.7208 6.31196C32.0647 4.91217 34.6762 2.19185 44.8267 2.19185V12.6032C34.6762 12.6032 32.0647 17.9684 30.7208 19.6014Z" fill="white"/>
</svg>
