<svg xmlns="http://www.w3.org/2000/svg" width="80" height="80" viewBox="0 0 80 80" fill="none">
  <g clip-path="url(#clip0_85_1785)">
    <path d="M78.6663 14.8333V66.6667C78.6663 69.6117 76.278 72 73.333 72H6.66634C3.72134 72 1.33301 69.6117 1.33301 66.6667V14.8333C1.33301 11.8883 3.72134 9.5 6.66634 9.5H73.333C76.278 9.5 78.6663 11.8883 78.6663 14.8333Z" fill="#EBF0FF"/>
    <path d="M78.6663 14.8333V17.8333C66.0847 17.8333 45.2043 15.785 26.4097 34.5767C17.3932 43.5948 11.374 55.609 9.97817 68.9998C9.45667 74.004 1.33301 72.406 1.33301 66.6667V14.8333C1.33301 11.8878 3.72084 9.5 6.66634 9.5H73.333C76.2785 9.5 78.6663 11.8878 78.6663 14.8333Z" fill="#EBF0FF"/>
    <path d="M73.333 9.5C76.278 9.5 78.6663 11.8883 78.6663 14.8333V24H1.33301V14.8333C1.33301 11.8883 3.72134 9.5 6.66634 9.5H73.333Z" fill="#EBF0FF"/>
    <path d="M75.6583 17.8198C64.11 17.7322 53.8983 17.4382 40.9797 24H1.33301V14.8333C1.33301 11.8878 3.72084 9.5 6.66634 9.5H73.333C79.2102 9.5 80.5612 17.857 75.6583 17.8198Z" fill="#EBF0FF"/>
    <path d="M22 73.3333H6.66667C2.99067 73.3333 0 70.3427 0 66.6667V33C0 31.2382 2.66667 31.2363 2.66667 33V66.6667C2.66667 68.8723 4.46117 70.6667 6.66667 70.6667H22C23.7617 70.6667 23.764 73.3333 22 73.3333ZM73.3333 8.16667H64.3333V6C64.3333 2.69167 61.6418 0 58.3333 0C55.0248 0 52.3333 2.6915 52.3333 6V8.16667H46V6C46 2.69167 43.3085 0 40 0C36.6915 0 34 2.6915 34 6V8.16667H27.6667V6C27.6667 2.69167 24.9752 0 21.6667 0C18.3582 0 15.6667 2.6915 15.6667 6V8.16667H6.66667C2.99067 8.16667 0 11.1573 0 14.8333V24C0 24.3536 0.140476 24.6928 0.390524 24.9428C0.640573 25.1929 0.979711 25.3333 1.33333 25.3333H68.6667C70.4283 25.3333 70.4307 22.6667 68.6667 22.6667H2.66667V14.8333C2.66667 12.6277 4.46117 10.8333 6.66667 10.8333H15.6667V13C15.6667 18.639 23 20.582 23 17.6667C23 17.313 22.8595 16.9739 22.6095 16.7239C22.3594 16.4738 22.0203 16.3333 21.6667 16.3333C19.8287 16.3333 18.3333 14.838 18.3333 13V6C18.3333 4.162 19.8287 2.66667 21.6667 2.66667C23.5047 2.66667 25 4.162 25 6V8.16667H23.3333C21.5717 8.16667 21.5693 10.8333 23.3333 10.8333H34V13C34 16.3083 36.6915 19 40 19C41.7617 19 41.764 16.3333 40 16.3333C38.162 16.3333 36.6667 14.838 36.6667 13V6C36.6667 4.162 38.162 2.66667 40 2.66667C41.838 2.66667 43.3333 4.162 43.3333 6V8.16667H41.6667C39.905 8.16667 39.9027 10.8333 41.6667 10.8333H52.3333V13C52.3333 18.639 59.6667 20.582 59.6667 17.6667C59.6667 17.313 59.5262 16.9739 59.2761 16.7239C59.0261 16.4738 58.687 16.3333 58.3333 16.3333C56.4953 16.3333 55 14.838 55 13V6C55 4.162 56.4953 2.66667 58.3333 2.66667C60.1713 2.66667 61.6667 4.162 61.6667 6V8.16667H60C58.2383 8.16667 58.236 10.8333 60 10.8333H73.3333C75.5388 10.8333 77.3333 12.6277 77.3333 14.8333V66.6667C77.3333 68.8723 75.5388 70.6667 73.3333 70.6667H58C56.2383 70.6667 56.236 73.3333 58 73.3333H73.3333C77.0093 73.3333 80 70.3427 80 66.6667V14.8333C80 11.1573 77.0093 8.16667 73.3333 8.16667ZM20 45.3333C20 35.5543 20.297 35.2322 19.177 34.7682C18.111 34.3268 17.776 35.0052 14.6667 38.1143L11.6095 35.0572C10.7728 34.2205 9.33333 34.8128 9.33333 36V45.3333C9.33333 47.0952 12 47.097 12 45.3333V39.219C14.915 42.134 14.4922 42.0602 17.3333 39.219V45.3333C17.3333 47.0952 20 47.097 20 45.3333ZM30.7743 45.8585L30.5493 45.3333H25.4507L25.2255 45.8585C24.5313 47.4777 22.0795 46.4295 22.7743 44.808L26.7743 35.4747C27.2343 34.4013 28.764 34.3978 29.2255 35.4747L33.2255 44.808C33.9203 46.4293 31.4688 47.478 30.7743 45.8585ZM29.4065 42.6667L28 39.3848L26.5935 42.6667H29.4065ZM42.5 43.0657L44.6083 44.1468C46.1758 44.9507 44.9613 47.325 43.3915 46.5197L38.6667 44.0967V45.3333C38.6667 47.0952 36 47.097 36 45.3333V36C36 35.6464 36.1405 35.3072 36.3905 35.0572C36.6406 34.8071 36.9797 34.6667 37.3333 34.6667H41C45.8285 34.6667 46.9947 41.402 42.5 43.0657ZM41 37.3333H38.6667V40.6667H41C43.2023 40.6667 43.2028 37.3333 41 37.3333ZM56 44H52C51.2648 44 50.6667 43.4018 50.6667 42.6667V38.6667C50.6667 37.9315 51.2648 37.3333 52 37.3333H56C57.7617 37.3333 57.764 34.6667 56 34.6667H52C49.7945 34.6667 48 36.461 48 38.6667V42.6667C48 44.8723 49.7945 46.6667 52 46.6667H56C57.7617 46.6667 57.764 44 56 44ZM60 36V45.3333C60 47.0952 62.6667 47.097 62.6667 45.3333V42H66.6667V45.3333C66.6667 47.0952 69.3333 47.097 69.3333 45.3333V36C69.3333 34.2382 66.6667 34.2363 66.6667 36V39.3333H62.6667V36C62.6667 34.2382 60 34.2363 60 36ZM40 80C31.7713 80 28.736 69.1372 35.7623 64.8547C30.7013 60.841 33.5458 52.6667 40 52.6667C46.4547 52.6667 49.2988 60.8408 44.2377 64.8547C51.2643 69.1372 48.2285 80 40 80ZM40 63.6667C42.2975 63.6667 44.1667 61.7975 44.1667 59.5C44.1667 57.2025 42.2975 55.3333 40 55.3333C37.7025 55.3333 35.8333 57.2025 35.8333 59.5C35.8333 61.7975 37.7025 63.6667 40 63.6667ZM45.5 71.8333C45.5 68.8007 43.0327 66.3333 40 66.3333C36.9673 66.3333 34.5 68.8007 34.5 71.8333C34.5 74.866 36.9673 77.3333 40 77.3333C43.0327 77.3333 45.5 74.866 45.5 71.8333Z" fill="#646CE6"/>
  </g>
  <defs>
    <clipPath id="clip0_85_1785">
      <rect width="80" height="80" fill="white"/>
    </clipPath>
  </defs>
</svg>