<svg xmlns="http://www.w3.org/2000/svg" width="80" height="80" viewBox="0 0 80 80" fill="none">
  <g clip-path="url(#clip0_85_1813)">
    <path d="M28.7252 60.472C32.6218 62.7221 33.9573 67.7048 31.7071 71.6031C29.4569 75.4997 24.4743 76.8352 20.576 74.585C16.6793 72.3348 15.3439 67.3522 17.594 63.4539C19.8442 59.5573 24.8269 58.2218 28.7252 60.472Z" fill="#EBF0FF"/>
    <path d="M29.7566 71.5785L18.5861 65.1297C17.7254 64.6327 17.4939 63.4997 18.081 62.6977C20.4464 59.4668 25.0201 58.3331 28.7255 60.472C32.3901 62.5883 33.749 67.0737 32.1179 70.7928C31.7177 71.7057 30.6199 72.0769 29.7566 71.5785Z" fill="#EBF0FF"/>
    <path d="M67.1582 42.2229C73.0173 32.073 70.6706 19.4401 62.1755 12.0061C62.1922 11.9899 62.1483 12.0418 63.9284 9.81243C65.9015 7.34156 65.2672 3.66395 62.5364 2.06904C59.554 0.364532 56.1425 1.83604 55.0309 4.67512L54.0081 7.28784C43.321 3.65065 31.207 7.93479 25.3479 18.083L13.0127 39.4505C12.4071 40.5006 11.4834 41.3312 10.375 41.8221C9.16744 42.3621 8.28983 42.312 7.05381 42.3459C6.07247 42.3715 5.11412 42.6485 4.27052 43.1506C3.42692 43.6526 2.72632 44.3628 2.23582 45.2131C0.65255 47.9556 1.5922 51.4647 4.33631 53.048L47.3839 77.9013C51.2249 80.1197 55.9871 77.3152 55.9871 72.9336C55.9871 71.2586 55.3405 70.2847 54.7481 69.1933C54.28 68.3308 54.0409 67.3627 54.0537 66.3815C54.0666 65.4002 54.3308 64.4387 54.8213 63.5887L67.1582 42.2229Z" fill="#EBF0FF"/>
    <path d="M62.5362 2.06918C65.2745 3.65112 65.9006 7.3412 63.9282 9.81257L62.1769 12.0045C62.1284 12.0531 59.2304 9.06434 54.0078 7.28798L55.0306 4.67526C56.1384 1.84616 59.5493 0.343551 62.5362 2.06918Z" fill="#EBF0FF"/>
    <path d="M65.2306 43.9128C72.5786 43.9128 78.5353 37.956 78.5353 30.608C78.5353 23.26 72.5786 17.3032 65.2306 17.3032C57.8825 17.3032 51.9258 23.26 51.9258 30.608C51.9258 37.956 57.8825 43.9128 65.2306 43.9128Z" fill="#EBF0FF"/>
    <path d="M65.7379 21.3215C60.2926 23.3342 56.6176 29.0182 56.9221 34.8197C57.0447 37.1559 53.8447 37.883 52.9443 35.7238C49.3254 27.0456 55.6896 17.4538 65.0114 17.3045C67.3569 17.2671 67.9381 20.5083 65.7379 21.3215ZM54.2123 7.35849C58.1714 8.74485 56.978 14.6442 52.7913 14.3836C44.0788 13.8414 35.1942 17.9839 30.3362 26.3983L18.001 47.7658C17.3954 48.8159 16.4717 49.6464 15.3633 50.1374C13.6501 50.9036 12.5979 50.4888 11.1856 50.7494C9.94364 50.9701 8.80924 51.5945 7.95836 52.5257C7.02885 53.5427 5.50861 53.725 4.3353 53.0478C1.59135 51.4642 0.651537 47.9554 2.23481 45.2129C2.72573 44.3629 3.42642 43.6531 4.26993 43.1511C5.11344 42.6491 6.07158 42.3718 7.0528 42.3458C7.83778 42.2801 8.93509 42.4653 10.374 41.8219C11.4824 41.331 12.4061 40.5005 13.0117 39.4503L25.3469 18.0828C31.2444 7.86823 43.4726 3.59806 54.2123 7.35849Z" fill="#EBF0FF"/>
    <path d="M62.5789 2.0943C63.7587 2.79879 63.1929 4.60043 61.8194 4.55885C59.7011 4.49465 57.6229 5.74131 56.7802 7.89319L56.6039 8.34389C55.7598 7.94173 54.893 7.58911 54.0078 7.28783L55.0306 4.6751C56.1861 1.72427 59.7207 0.387467 62.5789 2.0943Z" fill="#EBF0FF"/>
    <path d="M63.2831 48.933C62.9775 48.7566 62.6144 48.7088 62.2735 48.8001C61.9327 48.8914 61.6421 49.1144 61.4657 49.42L53.6692 62.924C52.4485 65.0378 52.4139 67.6836 53.5784 69.8287L54.1233 70.8324C55.4817 73.3345 54.1429 76.4525 51.3916 77.1897C50.2554 77.4942 49.0678 77.3381 48.0486 76.7497C33.6995 68.4646 19.3502 60.18 5.00068 51.8957C2.89203 50.6783 2.17042 47.9866 3.3883 45.8776C4.61816 43.747 7.30107 43.0804 9.38111 44.2815L35.7071 59.4809C36.3406 59.8468 37.1555 59.6331 37.5246 58.9939C37.701 58.6884 37.7488 58.3252 37.6575 57.9844C37.5661 57.6435 37.3432 57.3529 37.0376 57.1765L10.7118 41.9771C9.56239 41.3111 8.24759 40.985 6.92022 41.0368C6.84339 41.0286 6.76598 41.0271 6.68889 41.0323C2.27652 41.3541 -0.771936 45.6173 0.377763 49.9091C0.866382 51.7323 2.03571 53.2562 3.67036 54.1999L31.0099 69.9844C30.2337 71.9857 28.5734 73.5351 26.4152 74.1133C22.5987 75.1363 18.75 72.7155 17.97 68.8862C17.8995 68.5405 17.6946 68.2369 17.4003 68.0422C17.106 67.8475 16.7465 67.7777 16.4007 67.8481C16.2295 67.883 16.0669 67.9512 15.922 68.049C15.7772 68.1467 15.653 68.272 15.5566 68.4178C15.4602 68.5635 15.3935 68.7268 15.3602 68.8983C15.3269 69.0698 15.3277 69.2462 15.3626 69.4174C16.2667 73.8552 20.1849 77.0106 24.6354 77.0106C28.306 77.0106 31.7701 74.8941 33.3352 71.3268L46.7187 79.0537C50.1105 81.0122 54.4338 79.8236 56.3718 76.4671C57.592 74.3533 57.6267 71.7077 56.4624 69.5626L55.9174 68.5587C55.1915 67.2214 55.2131 65.5722 55.9741 64.2541L63.7706 50.7501C63.9468 50.4445 63.9945 50.0814 63.9031 49.7406C63.8117 49.3999 63.5887 49.1094 63.2831 48.933Z" fill="#646CE6"/>
    <path d="M42.4796 63.391C42.7852 63.5675 43.1483 63.6154 43.4892 63.5242C43.8301 63.4329 44.1208 63.21 44.2973 62.9044C44.4738 62.5989 44.5217 62.2357 44.4305 61.8948C44.3392 61.554 44.1163 61.2633 43.8107 61.0868L43.4969 60.9055C43.3456 60.8181 43.1786 60.7613 43.0054 60.7385C42.8321 60.7156 42.6561 60.7271 42.4873 60.7723C42.3185 60.8175 42.1603 60.8955 42.0216 61.0018C41.883 61.1081 41.7666 61.2407 41.6792 61.392C41.5918 61.5433 41.5351 61.7103 41.5122 61.8836C41.4894 62.0568 41.5009 62.2328 41.546 62.4016C41.5912 62.5704 41.6692 62.7286 41.7755 62.8673C41.8819 63.0059 42.0145 63.1223 42.1658 63.2097L42.4796 63.391ZM75.7605 20.4436C75.5154 20.1898 75.1795 20.0436 74.8267 20.0374C74.4739 20.0312 74.133 20.1654 73.8791 20.4105C73.6252 20.6555 73.4791 20.9914 73.4729 21.3443C73.4667 21.6971 73.6009 22.038 73.846 22.2918C76.0118 24.5352 77.2046 27.4885 77.2046 30.6077C77.2046 37.2103 71.8329 42.582 65.2303 42.582C58.6276 42.582 53.256 37.2103 53.256 30.6077C53.256 23.4889 59.4665 17.9014 66.5952 18.7102C67.6339 18.8278 68.5219 17.7137 67.8197 16.5947C66.7395 14.8734 65.448 13.2867 63.9861 11.871L64.9673 10.6425C67.452 7.53184 66.6339 2.90993 63.2068 0.920864C61.223 -0.230498 59.1099 -0.247296 57.2669 0.565627C56.944 0.70803 56.6909 0.97286 56.5633 1.30186C56.4357 1.63086 56.444 1.99707 56.5864 2.31995C56.7288 2.64282 56.9936 2.89589 57.3226 3.0235C57.6516 3.15112 58.0179 3.14281 58.3407 3.0004C59.4364 2.51711 60.6729 2.52675 61.8645 3.2186C63.9252 4.41503 64.336 7.16929 62.888 8.9819L61.9779 10.1213C49.7252 0.504258 31.8868 4.09589 24.1955 17.418L14.9485 33.4339C14.4341 34.325 15.086 35.4298 16.0995 35.4298C16.3333 35.43 16.5631 35.3687 16.7656 35.2519C16.9682 35.135 17.1363 34.9669 17.2532 34.7644L26.4999 18.7484C34.51 4.87521 54.1201 3.33934 64.1514 16.0123C56.5833 16.5663 50.5948 22.9007 50.5948 30.6077C50.5948 38.6775 57.1603 45.2429 65.2301 45.2429C73.3 45.2429 79.8654 38.6775 79.8654 30.6077C79.8655 26.7955 78.4077 23.1858 75.7605 20.4436Z" fill="#646CE6"/>
    <path d="M63.0678 23.623C62.7149 23.623 62.3765 23.7632 62.127 24.0127C61.8775 24.2622 61.7373 24.6007 61.7373 24.9535C61.7373 25.3064 61.8775 25.6448 62.127 25.8943C62.3765 26.1438 62.7149 26.284 63.0678 26.284H65.895C66.7204 26.284 67.3918 26.9556 67.3918 27.7808C67.3918 28.606 66.7204 29.2776 65.895 29.2776H64.7309C64.378 29.2776 64.0396 29.4178 63.7901 29.6673C63.5406 29.9168 63.4004 30.2552 63.4004 30.6081C63.4004 30.9609 63.5406 31.2993 63.7901 31.5488C64.0396 31.7984 64.378 31.9385 64.7309 31.9385H65.895C66.7204 31.9385 67.3918 32.6101 67.3918 33.4353C67.3918 34.2606 66.7204 34.9321 65.895 34.9321H63.0678C62.7149 34.9321 62.3765 35.0723 62.127 35.3218C61.8775 35.5713 61.7373 35.9097 61.7373 36.2626C61.7373 36.6155 61.8775 36.9539 62.127 37.2034C62.3765 37.4529 62.7149 37.5931 63.0678 37.5931H65.895C69.5028 37.5931 71.4057 33.2619 68.9399 30.6081C71.4057 27.9544 69.5028 23.623 65.895 23.623H63.0678Z" fill="#646CE6"/>
  </g>
  <defs>
    <clipPath id="clip0_85_1813">
      <rect width="80" height="80" fill="white"/>
    </clipPath>
  </defs>
</svg>