<svg xmlns="http://www.w3.org/2000/svg" width="21" height="20" viewBox="0 0 21 20" fill="none">
  <path d="M8.7577 1.09115C9.52272 -0.266141 11.4773 -0.26614 12.2423 1.09115L14.0181 4.24172C14.3035 4.74807 14.7951 5.10522 15.3648 5.22018L18.9099 5.93548C20.4372 6.24364 21.0412 8.10252 19.9867 9.24953L17.5391 11.912C17.1458 12.3399 16.958 12.9178 17.0247 13.4952L17.4399 17.0878C17.6188 18.6356 16.0375 19.7844 14.6208 19.136L11.3323 17.6309C10.8038 17.389 10.1962 17.389 9.66767 17.6309L6.37917 19.136C4.96245 19.7844 3.38119 18.6356 3.56007 17.0878L3.97528 13.4952C4.04201 12.9178 3.85425 12.3399 3.46087 11.912L1.01325 9.24953C-0.0412028 8.10252 0.562787 6.24364 2.09005 5.93548L5.63517 5.22018C6.20494 5.10522 6.6965 4.74807 6.98191 4.24172L8.7577 1.09115Z" fill="#FFB700"/>
</svg>