<svg xmlns="http://www.w3.org/2000/svg" width="54" height="54" viewBox="0 0 54 54" fill="none">
  <path d="M54 26.9971C54 32.349 52.4422 37.3418 49.7553 41.5353C49.2746 42.2883 48.7592 43.0123 48.2091 43.7074C48.0991 43.8464 47.9891 43.9854 47.879 44.1186C47.8037 44.2171 47.7285 44.3098 47.6474 44.4024C47.1494 44.9932 46.6224 45.5667 46.0781 46.1111C45.1979 46.9915 44.2539 47.814 43.2521 48.5612C43.2232 48.5844 43.1942 48.6017 43.1653 48.6249C43.0321 48.7292 42.8931 48.8276 42.7541 48.9319L42.5283 49.0883C42.4009 49.181 42.2734 49.2736 42.1403 49.3605C42.0071 49.4474 41.8797 49.5343 41.7465 49.6212C41.6886 49.6617 41.6307 49.6965 41.567 49.7312C40.8373 50.2062 40.0787 50.6464 39.2969 51.0402C39.1174 51.1329 38.9379 51.2256 38.7526 51.3125C37.9129 51.7179 37.0501 52.0828 36.1699 52.4014C35.0001 52.8242 33.7956 53.1717 32.5564 53.4266C30.7612 53.8031 28.9081 54 27.0029 54C26.6265 54 26.2443 53.9942 25.8679 53.9768C25.4336 53.9595 25.005 53.9305 24.5765 53.89C24.5476 53.89 24.5244 53.89 24.4954 53.89C24.4259 53.8842 24.3622 53.8784 24.2927 53.8668C23.5573 53.7973 22.8277 53.693 22.1096 53.554C21.6579 53.4729 21.212 53.3802 20.7719 53.276C19.4863 52.9748 18.2413 52.5809 17.0368 52.0944C15.9886 51.6831 14.9752 51.2024 13.9908 50.6579C13.9676 50.6464 13.9502 50.6348 13.9271 50.6232C13.8113 50.5595 13.6954 50.4958 13.5854 50.4263C13.3132 50.2757 13.0411 50.1135 12.7747 49.9455C12.6936 49.8992 12.6125 49.8528 12.5373 49.8007C12.2188 49.6038 11.9119 49.3953 11.6049 49.181C11.0548 48.8045 10.5163 48.399 9.99507 47.9704C9.93137 47.9241 9.87346 47.8777 9.80976 47.8256C9.07432 47.2116 8.36783 46.5629 7.69609 45.8794C7.50499 45.6883 7.31967 45.4914 7.14015 45.2944C6.90273 45.0454 6.67689 44.7847 6.45683 44.5241C6.27152 44.3098 6.09201 44.0897 5.91828 43.8696C5.83142 43.7653 5.75035 43.6668 5.66928 43.5626C5.6577 43.551 5.6519 43.5394 5.64611 43.5278C5.19442 42.9486 4.77169 42.352 4.37212 41.7381C1.60987 37.4982 0 32.4417 0 27.0029C0 12.0882 12.0914 0 27.0029 0C41.9144 0 54 12.0882 54 27.0029V26.9971Z" fill="#EBF0FF"/>
  <path d="M38.7298 34.3011C38.7298 34.3011 38.2491 8.45084 29.1111 7.51831C19.9731 6.58578 18.8844 13.0092 18.8844 13.0092C18.8844 13.0092 16.6086 13.8201 16.1453 17.2954C15.682 20.7707 15.4678 34.637 15.4678 34.637L36.1065 35.8186L38.724 34.2953L38.7298 34.3011Z" fill="#1B0040"/>
  <path d="M48.2094 43.7079C48.0994 43.8469 47.9894 43.9859 47.8793 44.1192C47.8041 44.2176 47.7288 44.3103 47.6477 44.403C47.1497 44.9938 46.6227 45.5672 46.0784 46.1117C45.1982 46.9921 44.2542 47.8145 43.2524 48.5617C43.2235 48.5849 43.1945 48.6023 43.1656 48.6254C43.0324 48.7297 42.8934 48.8282 42.7544 48.9324L42.5286 49.0888C42.4012 49.1815 42.2738 49.2742 42.1406 49.361C42.0074 49.4479 41.88 49.5348 41.7468 49.6217C41.6889 49.6622 41.631 49.697 41.5673 49.7317C40.8376 50.2067 40.079 50.6469 39.2972 51.0408C39.1177 51.1334 38.9382 51.2261 38.7529 51.313C37.9132 51.7184 37.0504 52.0833 36.1702 52.4019C35.0004 52.8247 33.7959 53.1723 32.5567 53.4271C30.7615 53.8036 28.9084 54.0005 27.0032 54.0005C26.6268 54.0005 26.2446 53.9947 25.8682 53.9774C25.4339 53.96 25.0053 53.931 24.5768 53.8905C24.5479 53.8905 24.5247 53.8905 24.4957 53.8905C23.6908 53.8152 22.8917 53.7051 22.1099 53.5545C21.6582 53.4734 21.2123 53.3808 20.7722 53.2765C19.4866 52.9753 18.2416 52.5815 17.0371 52.0949C15.9889 51.6837 14.9755 51.2029 13.9911 50.6585C13.9679 50.6469 13.9505 50.6353 13.9274 50.6237C13.8116 50.56 13.6957 50.4963 13.5857 50.4268C13.3135 50.2762 13.0414 50.114 12.775 49.946C11.1999 43.4125 10.6555 37.603 12.7171 35.1761C12.8271 35.0371 12.9545 34.9097 13.0877 34.788C13.5973 34.3536 14.1416 33.954 14.7092 33.5775C14.7323 33.5659 14.7497 33.5543 14.7671 33.5427C15.711 32.9346 16.7244 32.4075 17.7899 31.9557C17.8015 31.9499 17.8189 31.9441 17.8247 31.9441C24.6868 29.0828 33.5295 29.5578 38.3533 31.5734C41.4341 32.8593 45.2329 38.5008 48.2094 43.7137V43.7079Z" fill="#9364ED"/>
  <path d="M22.7812 25.0391V31.3872C22.7812 31.3872 23.9279 33.2118 27.6398 33.5129C30.4079 33.7388 31.2823 32.3198 31.2823 32.3198L30.6105 26.7651L23.9047 25.2881L22.7812 25.0391Z" fill="#FD8753"/>
  <path d="M22.793 24.6572C22.8103 24.831 22.874 25.0337 22.9783 25.2712C24.397 28.4453 29.3946 29.7601 30.9929 29.9049L30.6107 26.7714L22.793 24.6572Z" fill="#323232"/>
  <path d="M42.9508 47.1481L42.7539 48.932L42.5281 49.0884C42.4007 49.1811 42.2733 49.2738 42.1401 49.3607L42.3949 47.0901C42.835 43.1747 40.8893 38.3209 40.8661 38.2745C40.8082 38.1239 40.8777 37.9618 41.0225 37.9096C41.1672 37.8459 41.3236 37.9212 41.3873 38.0602C41.4626 38.2687 43.4025 43.0936 42.9508 47.1481Z" fill="#703400"/>
  <path d="M32.0296 12.2968C32.0296 12.2968 35.3594 20.2551 34.0449 24.6803C32.7303 29.1055 28.6941 28.341 26.2909 27.4432C23.8819 26.5454 22.7816 25.0452 22.7816 25.0452C22.7816 25.0452 20.5058 25.775 19.0291 23.6493C17.5466 21.5236 18.5195 19.1199 19.8167 18.587C21.1138 18.0541 22.6368 19.0098 22.6368 19.0098L21.4671 16.693C21.4671 16.693 26.7136 5.09715 32.0238 12.2968H32.0296Z" fill="#FD8753"/>
  <path d="M31.5141 22.3746C31.4851 22.3746 31.4504 22.3746 31.4214 22.3572C31.2709 22.3051 31.1898 22.1429 31.2361 21.9923C31.711 20.5674 30.6686 18.9804 30.657 18.9688C30.5702 18.8356 30.6049 18.656 30.7381 18.5691C30.8713 18.4823 31.0508 18.517 31.1377 18.6502C31.1898 18.7255 32.348 20.4863 31.7862 22.1834C31.7457 22.3051 31.6299 22.3804 31.5141 22.3804V22.3746Z" fill="#323232"/>
  <path d="M22.2252 22.746C22.1441 22.746 22.0689 22.7113 22.0109 22.6476L19.9146 20.3249C19.8046 20.2033 19.8162 20.0237 19.9378 19.9137C20.0536 19.8036 20.2389 19.8152 20.349 19.9368L22.4453 22.2595C22.5553 22.3811 22.5437 22.5607 22.4221 22.6707C22.3642 22.7229 22.2947 22.746 22.231 22.746H22.2252Z" fill="#323232"/>
  <path d="M19.9673 22.0856C19.8225 22.0856 19.7009 21.9814 19.6778 21.8308C19.6546 21.6744 19.7704 21.5296 19.9268 21.5064L21.415 21.3153C21.5714 21.2979 21.7162 21.408 21.7393 21.5643C21.7625 21.7207 21.6466 21.8655 21.4903 21.8887L20.002 22.0798C20.002 22.0798 19.9789 22.0798 19.9673 22.0798V22.0856Z" fill="#323232"/>
  <path d="M33.1987 15.9402C33.1987 15.9402 33.1582 15.9402 33.1408 15.9402L31.7452 15.6622C31.5889 15.6333 31.4846 15.4769 31.5194 15.3205C31.5483 15.1641 31.7047 15.0598 31.8611 15.0946L33.2567 15.3726C33.413 15.4016 33.5173 15.558 33.4825 15.7143C33.4536 15.8534 33.3319 15.946 33.1987 15.946V15.9402Z" fill="#323232"/>
  <path d="M27.3445 16.7106C27.2344 16.7106 27.1302 16.6469 27.0839 16.5426C27.0144 16.3978 27.0781 16.2241 27.2229 16.1546L29.0933 15.2626C29.2381 15.1931 29.4118 15.2568 29.4813 15.4016C29.5508 15.5464 29.4871 15.7202 29.3423 15.7897L27.4719 16.6816C27.4313 16.699 27.3908 16.7106 27.3503 16.7106H27.3445Z" fill="#323232"/>
  <path d="M32.5565 19.1828C32.4291 19.1828 32.3133 19.1017 32.2786 18.9685L31.879 17.5321C31.8558 17.4394 31.879 17.3409 31.9369 17.2656L32.3886 16.7385C32.4928 16.6169 32.6781 16.6053 32.794 16.7096C32.9156 16.8138 32.9271 16.9992 32.8229 17.1208L32.4697 17.5263L32.8287 18.8121C32.8692 18.9685 32.7824 19.1249 32.626 19.1712C32.6029 19.177 32.5739 19.1828 32.5507 19.1828H32.5565Z" fill="#323232"/>
  <path d="M27.9935 19.4676C27.8661 19.4676 27.7503 19.3865 27.7155 19.2533L27.3159 17.8169C27.287 17.7242 27.3159 17.6199 27.3796 17.5446L28.0051 16.8554C28.1151 16.7395 28.2946 16.728 28.4162 16.8322C28.5378 16.9423 28.5436 17.1218 28.4394 17.2435L27.924 17.8169L28.283 19.1027C28.3236 19.2591 28.2367 19.4155 28.0803 19.4618C28.0572 19.4676 28.0282 19.4734 28.0051 19.4734L27.9935 19.4676Z" fill="#323232"/>
  <path d="M34.3113 15.1239C34.3113 15.1239 32.1166 14.6837 30.582 14.7416L29.0416 14.7995L28.4162 12.3263V15.0254C28.4162 15.0254 27.3391 15.2108 26.262 15.7726C25.1849 16.3344 24.4726 17.0295 24.4726 17.0295L23.4534 14.9501L23.882 17.5682L22.6369 19.0104L20.7549 17.2496L21.9594 13.5948C21.9594 13.5948 24.7969 9.63295 25.017 9.58082C25.237 9.53449 29.3312 9.30859 29.3312 9.30859C29.3312 9.30859 32.852 10.6871 32.9389 10.803C33.0258 10.9188 34.3113 15.1181 34.3113 15.1181V15.1239Z" fill="#1B0040"/>
  <path d="M28.1375 33.6114C26.5218 33.6114 24.5124 33.177 22.3582 31.6826C22.225 31.5899 22.196 31.4104 22.2829 31.2771C22.3755 31.1439 22.5551 31.115 22.6882 31.2018C27.5352 34.5555 31.4383 32.3371 31.6004 32.2444C31.7394 32.1633 31.9131 32.2097 31.9942 32.3487C32.0753 32.4877 32.0289 32.6615 31.89 32.7425C31.8668 32.7599 30.3843 33.6056 28.1317 33.6056L28.1375 33.6114Z" fill="#703400"/>
  <path d="M24.2929 53.8607C23.5575 53.7912 22.8279 53.6869 22.1098 53.5479C21.6581 53.4668 21.2122 53.3742 20.7721 53.2699C19.4865 52.9687 18.2415 52.5749 17.037 52.0883C15.9888 51.6771 14.9754 51.1963 13.991 50.6519C13.9678 50.6403 13.9504 50.6287 13.9273 50.6171C13.8115 50.5534 13.6956 50.4897 13.5856 50.4202C13.3134 50.2696 13.0413 50.1074 12.7749 49.9394C12.6938 49.8931 12.6127 49.8468 12.5375 49.7946C12.219 49.5977 11.9121 49.3892 11.6051 49.1749C11.055 48.7984 10.5165 48.3929 9.99527 47.9643C9.93157 47.918 9.87366 47.8716 9.80996 47.8195C9.07452 47.2055 8.36803 46.5568 7.69629 45.8734C7.50519 45.6822 7.31987 45.4853 7.14035 45.2884C6.90293 45.0393 6.67708 44.7786 6.45703 44.518C8.27537 40.0291 10.638 37.0751 12.717 35.1695C13.4235 34.5208 14.101 33.9995 14.709 33.5709C14.7322 33.5593 14.7496 33.5477 14.767 33.5361C16.3594 32.4472 17.5408 32.0244 17.7898 31.9491C17.8014 31.9433 17.8188 31.9375 17.8245 31.9375C17.8303 31.9375 24.2929 53.8607 24.2929 53.8607Z" fill="#9364ED"/>
  <path d="M30.6805 24.7959C30.0551 24.7959 29.2791 24.182 29.0243 23.9619C28.9317 23.8808 28.897 23.7533 28.9433 23.6375C28.9896 23.5217 29.1112 23.4579 29.2212 23.4521L31.8098 23.4985C31.9256 23.4985 32.0298 23.568 32.0704 23.678C32.1167 23.7823 32.0935 23.9097 32.0124 23.9908C31.9951 24.0082 31.6013 24.4136 31.0454 24.709C30.9353 24.767 30.8137 24.7959 30.6863 24.7959H30.6805ZM30.1767 24.0487C30.4373 24.182 30.6632 24.2573 30.7674 24.1993C30.8485 24.153 30.9238 24.1067 30.999 24.0603L30.1767 24.0429V24.0487Z" fill="#323232"/>
  <path d="M22.7811 24.9182C22.7811 25.648 22.1847 26.2446 21.455 26.2446C20.7254 26.2446 20.1289 25.648 20.1289 24.9182C20.1289 24.1884 20.7254 23.5918 21.455 23.5918C22.1847 23.5918 22.7811 24.1884 22.7811 24.9182Z" fill="#07CBF5"/>
</svg>